<?xml version="1.0" encoding="utf-8"?>
<!-- Generator: Adobe Illustrator 26.3.1, SVG Export Plug-In . SVG Version: 6.00 Build 0)  -->
<svg version="1.1" id="Layer_1" xmlns="http://www.w3.org/2000/svg" xmlns:xlink="http://www.w3.org/1999/xlink" x="0px" y="0px"
	 viewBox="0 0 595.3 841.9" style="enable-background:new 0 0 595.3 841.9;" xml:space="preserve">
<style type="text/css">
	.st0{fill:url(#SVGID_1_);}
	.st1{fill:#FFFFFF;}
	.st2{fill:#B2B0B9;}
	.st3{fill:#B2B0BA;}
	.st4{fill:#30394E;}
	.st5{fill:#31394E;}
	.st6{fill:#262E45;}
	.st7{fill:#272F45;}
	.st8{fill:#272F46;}
	.st9{fill:#31394D;}
	.st10{fill:#30394D;}
	.st11{fill:#31384D;}
	.st12{fill:#32394E;}
	.st13{fill:#30384D;}
	.st14{fill:#262F45;}
	.st15{display:none;fill:#414042;}
	.st16{display:none;}
	.st17{display:inline;fill:#414042;}
	.st18{fill:#141414;}
	.st19{fill:none;stroke:url(#SVGID_00000105410264766263009830000009683935209350139264_);stroke-width:22;stroke-miterlimit:10;}
	.st20{fill:none;stroke:#141414;stroke-width:13;stroke-miterlimit:10;}
</style>
<image style="display:none;overflow:visible;" width="512" height="512" xlink:href="C:\Users\looot\Downloads\logo_for_a_hacker_profile_code_matrix_vector_pic_two_tone_-n_9_-i_-S_2127343152_ts-1660330610_idx-8.png"  transform="matrix(1 0 0 1 37.9739 162.2675)">
</image>
<linearGradient id="SVGID_1_" gradientUnits="userSpaceOnUse" x1="163.3095" y1="419.8189" x2="422.1086" y2="419.8189">
	<stop  offset="2.012780e-07" style="stop-color:#99908E"/>
	<stop  offset="0.1753" style="stop-color:#857D7A"/>
	<stop  offset="0.439" style="stop-color:#716967"/>
	<stop  offset="0.7106" style="stop-color:#665E5C"/>
	<stop  offset="1" style="stop-color:#625B59"/>
</linearGradient>
<ellipse class="st0" cx="292.7" cy="419.8" rx="129.4" ry="130.4"/>
<g>
	<path class="st1" d="M300.3,381.1c0-8.3,0-16.6,0-25c0-0.3,0-0.6,0-1c0-7.7,0-15.4,0-23c0-0.3,0-0.6,0-1c0-7.7,0-15.4,0-23
		c0-0.3,0-0.6,0-1c0-7.7,0-15.4,0-23c0-0.3,0-0.6,0-1c0-6.8,0-13.5,0-20.3c-2.3,0.9-5.2,0.6-7.6,0.5c0,6.2,0,12.3,0,18.5
		c0,0.4-0.1,0.9-0.1,1.3c0,0.3,0,0.6,0,1c0,0.7,0.1,1.3,0.1,2c0,6.6,0,13.1,0,19.7c0,0.4-0.1,0.9-0.1,1.3c0,0.3,0,0.6,0,1
		c0,0.7,0.1,1.3,0.1,2c0,6.6,0,13.1,0,19.7c0,0.4-0.1,0.9-0.1,1.3c0,0.3,0,0.7,0,1c0,0.8,0.1,1.5,0.1,2.3c0,6.5,0,13,0,19.5
		c0,0.4-0.1,0.9-0.1,1.3c0,0.3,0,0.6,0,1c0,0.6,0.1,1.3,0.1,1.9c0,7.7,0,15.4,0,23.1c0,0.3,0,0.6,0,1c0,7.7,0,15.4,0,23
		c0,0.3,0,0.6,0,1c0,7.7,0,15.4,0,23c0,0.3,0,0.6,0,1c0,7.7,0,15.4,0,23c0,0.3,0,0.6,0,1c0,7.7,0,15.4,0,23c0,0.3,0,0.6,0,1
		c0,7.7,0,15.4,0,23c0,0.3,0,0.6,0,1c0,7.7,0,15.4,0,23c0,0.3,0,0.6,0,1c0,7.7,0,15.3,0,23c0,0.1,0,0.2,0,0.3h7.4c0-0.1,0-0.2,0-0.3
		c0-7.7,0-15.3,0-23c0-0.3,0-0.6,0-1c0-7.7,0-15.4,0-23c0-0.3,0-0.6,0-1c0-7.7,0-15.4,0-23c0-0.3,0-0.6,0-1c0-7.7,0-15.4,0-23
		c0-0.3,0-0.6,0-1c0-7.7,0-15.4,0-23c0-0.3,0-0.6,0-1c0-7.7,0-15.4,0-23c0-0.3,0-0.6,0-1c0-7.7,0-15.4,0-23
		C300.3,381.8,300.3,381.4,300.3,381.1z"/>
	<path class="st2" d="M378.9,549.1l-6.6,0c-0.3,0-0.6,0-1,0c-7.7,0-15.4,0-23,0c-0.3,0-0.6,0-1,0l-23,0c-0.3,0-0.6,0-1,0
		c-7.7,0-15.3,0-23,0c0,0.1,0,0.2,0,0.3h78.6C378.9,549.3,378.9,549.2,378.9,549.1z"/>
	<path class="st3" d="M204.8,549.4h88c0-0.1,0-0.2,0-0.3c-7.3,0-14.7,0-22,0c-0.3,0-0.6,0-1,0c-7.7,0-15.4,0-23,0c-0.3,0-0.6,0-1,0
		c-7.7,0-15.4,0-23,0c-0.3,0-0.6,0-1,0c-5.7,0-11.4,0-17,0C204.8,549.2,204.8,549.3,204.8,549.4z"/>
	<path class="st4" d="M349.5,283.2c-1,0-1.3-0.3-1.3-1.3c0-3.4,0-6.7,0-10.1c-0.3-0.1-0.6-0.3-1-0.4c0,3.9,0,7.8,0,11.7
		c0.3,0.3,0.6,0.6,1,1c7.4,0,14.9,0,22.3,0v-1c0,0,0,0,0,0C363.5,283.2,356.5,283.2,349.5,283.2z"/>
	<path class="st4" d="M372.2,549.1c0-7.7,0-15.3,0-23c-0.4-0.3-0.5-0.6,0-1c0-7.7,0-15.4,0-23c-0.4-0.3-0.5-0.6,0-1l0-23
		c-0.4-0.3-0.5-0.6,0-1c0-7.7,0-15.4,0-23c-0.4-0.3-0.5-0.6,0-1c0-7.7,0-15.4,0-23c-0.4-0.3-0.5-0.6,0-1c0-7.7,0-15.4,0-23
		c-0.4-0.3-0.5-0.6,0-1c0-7.4,0-14.7,0-22.1h-1c0,6.9,0,13.8,0,20.7c0,1-0.2,1.4-1.3,1.4c-6.8-0.1-13.7,0-20.5,0
		c-1,0-1.3-0.3-1.3-1.3c0-6.8,0.1-13.5,0-20.3c0-1.3,0.4-1.5,1.6-1.5c7.1,0,14.2,0,21.2,0v-1c-0.2,0-0.5,0-0.7,0
		c-6.9,0-13.9,0-20.8,0c-1,0-1.3-0.3-1.3-1.3c0-7.7,0-15.3,0-23c0-0.9,0.7-0.7,1.2-0.7c7,0,13.9,0,20.9,0v-1c-6.9,0-13.9,0-20.8,0
		c-1,0-1.3-0.3-1.3-1.3c0-7,0-14,0-21.1c0-0.9,0.7-0.7,1.2-0.7c7,0,13.9,0,20.9,0v-1c-6.9,0-13.9,0-20.8,0c-1,0-1.3-0.3-1.3-1.3
		c0-7,0-14,0-21.1c0-0.9,0.7-0.7,1.2-0.7c7,0,13.9,0,20.9,0v-1c-6.9,0-13.9,0-20.8,0c-1,0-1.3-0.3-1.3-1.3c0-7,0-14,0-21.1l0,0
		c-0.3,0-0.6,0-1,0c0,7,0,14,0,21c0,1-0.2,1.4-1.3,1.4c-6.8-0.1-13.7,0-20.5,0c-1,0-1.3-0.3-1.3-1.3c0-6.8,0-13.7,0-20.5
		c0-1.1,0.4-1.3,1.4-1.3c7,0,14,0,21,0v-1c-7,0-14,0-21,0c-1,0-1.4-0.2-1.4-1.3c0-5.3,0-10.7,0-16c-0.3-0.2-0.6-0.4-0.9-0.5
		c0,5.5,0,11,0,16.5c0,1-0.2,1.4-1.3,1.4c-7.2,0-14.5,0-21.7,0c0,0.3,0,0.6,0,1c7.2,0,14.5,0,21.7,0c1.1,0,1.3,0.3,1.3,1.4
		c0,6.8,0,13.6,0,20.4c0,1-0.2,1.4-1.3,1.4c-7.2,0-14.5,0-21.7,0c0,0.3,0,0.6,0,1c7.2,0,14.5,0,21.7,0c1.1,0,1.3,0.3,1.3,1.4
		c0,6.8,0,13.6,0,20.4c0,1-0.2,1.4-1.3,1.4c-7.2,0-14.5,0-21.7,0c0,0.3,0,0.6,0,1c7.2,0,14.5,0,21.7,0c1.1,0,1.3,0.3,1.3,1.4
		c0,6.8,0,13.6,0,20.4c0,1-0.2,1.4-1.3,1.4c-7.2,0-14.5,0-21.7,0c0,0.3,0,0.6,0,1c7.2,0,14.5,0,21.7,0c1.1,0,1.3,0.3,1.3,1.4
		c0,7.4,0,14.9,0,22.3c0,1-0.2,1.4-1.3,1.4c-7.2,0-14.5,0-21.7,0c0,0.3,0,0.6,0,1c7.2,0,14.3,0,21.5,0c1.5,0,1.5,0,1.5,1.5
		c0,6.7,0,13.4,0,20c0,1.1-0.2,1.5-1.4,1.5c-7.2-0.1-14.4,0-21.6,0c0,0.3,0,0.6,0,1c7.2,0,14.3,0,21.5,0c1.5,0,1.5,0,1.5,1.5
		c0,6.7,0,13.4,0,20c0,1.1-0.2,1.5-1.4,1.5c-7.2-0.1-14.4,0-21.6,0c0,0.3,0,0.6,0,1c7.2,0,14.3,0,21.5,0c1.5,0,1.5,0,1.5,1.5
		c0,6.7,0,13.4,0,20c0,1.1-0.2,1.5-1.4,1.5c-7.2-0.1-14.4,0-21.6,0c0,0.3,0,0.6,0,1c7.2,0,14.3,0,21.5,0c1.5,0,1.5,0,1.5,1.5
		c0,6.7,0,13.4,0,20c0,1.1-0.2,1.5-1.4,1.5c-7.2-0.1-14.4,0-21.6,0c0,0.3,0,0.6,0,1c7.2,0,14.3,0,21.5,0c1.5,0,1.5,0,1.5,1.5
		c0,6.7,0,13.4,0,20c0,1.1-0.2,1.5-1.4,1.5c-7.2-0.1-14.4,0-21.6,0c0,0.3,0,0.6,0,1c7.2,0,14.3,0,21.5,0c1.5,0,1.5,0,1.5,1.5
		c0,6.7,0,13.4,0,20c0,1.1-0.2,1.5-1.4,1.5c-7.2-0.1-14.4,0-21.6,0c0,0.3,0,0.6,0,1c7.2,0,14.3,0,21.5,0c1.2,0,1.6,0.3,1.6,1.6
		c-0.1,7.2,0,14.3,0,21.5c0.3,0,0.6,0,1,0c0-7.7,0-15.3,0-23c0-0.3,0-0.6,0-1l0-23c0-0.3,0-0.6,0-1c0-7.7,0-15.4,0-23
		c0-0.3,0-0.6,0-1l0-23l0-1c0-7.7,0-15.4,0-23c0-0.3,0-0.6,0-1c0-7.7,0-15.4,0-23c0-0.3,0-0.6,0-1c0-7.7,0-15.4,0-23
		c0-0.3,0-0.6,0-1c0-7.9,0-15.7,0-23.6c0-1,0.2-1.4,1.3-1.4c6.8,0.1,13.7,0,20.5,0c1,0,1.3,0.3,1.3,1.3c0,7.5,0,15,0,22.5
		c0,0.4-0.3,0.8-0.5,1.2c-0.1,0.3-0.2,0.6-0.2,1c0.2,0.3,0.7,0.7,0.7,1c0,7.1,0,14.1,0,21.2c0,0.3-0.3,0.5-0.5,0.8
		c-0.1,0.3-0.2,0.6-0.2,1c0.2,0.3,0.7,0.7,0.7,1c0,7.1,0,14.1,0,21.2c0,0.3-0.3,0.5-0.5,0.8c-0.1,0.3-0.2,0.6-0.2,1
		c0.2,0.3,0.7,0.7,0.7,1c0,7.1,0,14.1,0,21.2c0,0.3-0.3,0.5-0.5,0.8c-0.1,0.3-0.2,0.6-0.2,1c0.2,0.3,0.7,0.7,0.7,1
		c0,7.1,0,14.1,0,21.2c0,0.3-0.3,0.5-0.5,0.8c-0.1,0.3-0.2,0.6-0.2,1c0.2,0.3,0.7,0.7,0.7,1c0,7.1,0,14.1,0,21.2
		c0,0.3-0.3,0.5-0.5,0.8c-0.1,0.3-0.2,0.6-0.2,1c0.2,0.3,0.7,0.7,0.7,1c0,7.1,0,14.1,0,21.2c0,0.3-0.3,0.5-0.5,0.8
		c-0.1,0.3-0.2,0.6-0.2,1c0.9,0.1,0.7,0.8,0.7,1.4c0,7.2,0,14.4,0,21.6c0.3,0,0.6,0,1,0c0-7.2,0-14.4,0-21.6c0-1.1,0.3-1.4,1.4-1.4
		c6.7,0,13.4,0,20.1,0c1.2,0,1.5,0.5,1.5,1.6c0,7.2,0,14.3,0,21.5C371.6,549.1,371.9,549.1,372.2,549.1z M325.3,308.1
		c7,0,13.9,0,20.9,0c0.8,0,1.1,0.3,1.1,1.1c0,3.5,0,7,0,10.5c0,3.4,0,6.9,0,10.3c0,0.8-0.2,1.1-1.1,1.1c-7,0-14,0-21,0
		c-0.8,0-1-0.3-1-1c0-7,0-14,0-21C324.2,308.3,324.6,308.1,325.3,308.1z M347.3,343.7c0,3.5,0,7,0,10.4c0,0.8-0.3,1.1-1.1,1.1
		c-7,0-13.9,0-20.9,0c-0.9,0-1.1-0.3-1.1-1.2c0-6.9,0-13.8,0-20.7c0-0.9,0.3-1.2,1.2-1.2c6.9,0,13.8,0,20.7,0c1,0,1.2,0.4,1.2,1.2
		C347.3,336.8,347.3,340.3,347.3,343.7z M348.2,407.3c0-0.9,0.3-1.3,1.3-1.2c6.8,0,13.7,0,20.5,0c0.9,0,1.3,0.4,1.3,1.3
		c0,7,0,13.9,0,20.9c0,0.9-0.4,0.9-1.1,0.9c-3.5,0-7,0-10.6,0c-3.4,0-6.9,0-10.3,0c-0.8,0-1.1-0.2-1.1-1.1
		C348.3,421.1,348.3,414.2,348.2,407.3z M348.2,431.5c0-1,0.3-1.4,1.4-1.4c6.8,0,13.6,0,20.4,0c0.9,0,1.3,0.3,1.3,1.2c0,7,0,14,0,21
		c0,0.9-0.5,0.9-1.1,0.8c-3.5,0-7,0-10.4,0c-3.4,0-6.9,0-10.3,0c-1,0-1.3-0.3-1.3-1.3C348.3,445,348.3,438.3,348.2,431.5z
		 M348.2,455.4c0-1,0.3-1.3,1.3-1.3c6.8,0,13.7,0,20.5,0c1,0,1.3,0.4,1.3,1.3c0,7,0,13.9,0,20.9c0,0.7-0.2,0.9-0.9,0.9
		c-7.1,0-14.1,0-21.2,0c-0.9,0-0.9-0.4-0.9-1.1c0-3.5,0-7,0-10.4C348.2,462.2,348.3,458.8,348.2,455.4z M370.2,525.1
		c-3.5,0-7,0-10.4,0c-3.4,0-6.8,0-10.2,0c-1,0-1.4-0.2-1.4-1.3c0.1-6.8,0-13.6,0-20.4c0-1,0.3-1.4,1.4-1.4c6.8,0,13.6,0,20.4,0
		c0.9,0,1.3,0.3,1.3,1.2c0,7,0,14,0,21C371.3,525.1,370.8,525.1,370.2,525.1z M370.2,501.1c-3.5,0-7,0-10.4,0c-3.5,0-7,0-10.4,0
		c-0.9,0-1.1-0.3-1.1-1.2c0-6.9,0-13.7,0-20.6c0-1,0.4-1.3,1.3-1.3c6.8,0,13.6,0,20.4,0c1,0,1.3,0.4,1.3,1.3c0,6.9,0,13.8,0,20.7
		C371.3,501,371,501.1,370.2,501.1z"/>
	<path class="st5" d="M272.1,355.2c-1.2,0-1.4-0.4-1.4-1.5c0.1-7.2,0-14.4,0-21.6c-0.3-0.3-0.6-0.6-1-1c-7.2,0-14.4,0-21.6,0
		c-1.1,0-1.5-0.2-1.5-1.4c0.1-6.8,0-13.6,0-20.4c0-1,0.3-1.3,1.3-1.3c6.9,0,13.7,0,20.6,0c0.5,0,1.2-0.2,1.2,0.7
		c0.3,0.1,0.6,0.2,1,0.2c-0.2-1,0.5-1,1.2-1c6.9,0,13.8,0,20.7,0c0-0.3,0-0.6,0-1c-7.3,0-14.6,0-21.9,0c-0.3,0-0.6,0-1,0
		c-7.2,0-14.5,0-21.7,0c-1,0-1.4-0.2-1.4-1.3c0.1-6.8,0-13.7,0-20.5c0-1,0.3-1.3,1.3-1.3c6.9,0,13.7,0,20.6,0c0.5,0,1.2-0.2,1.2,0.7
		c0.3,0.1,0.6,0.2,1,0.2c-0.2-1,0.5-1,1.2-1c6.9,0,13.8,0,20.7,0c0-0.3,0-0.6,0-1c-7.3,0-14.6,0-21.9,0c-0.3,0-0.6,0-1,0
		c-7.2,0-14.5,0-21.7,0c-1,0-1.4-0.2-1.4-1.3c0-2.4,0-4.9,0-7.3c-0.3,0.1-0.6,0.2-1,0.3c0,2.4,0,4.8,0,7.3c0,1-0.5,1.1-1.2,1.1
		c-6.3,0-12.5,0-18.8,0c-0.7,0.3-1.5,0.6-2.2,1c0,0,0,0,0.1,0c7,0,14.1,0,21.1,0c0.8,0,1,0.2,1,1c0,7,0,14.1,0,21.1
		c0,0.7-0.3,1-1,0.9c0.1,0.3,0.2,0.6,0.2,1c0.2,0.3,0.7,0.5,0.7,0.8c0,7.1,0,14.2,0,21.3c0,0.7-0.2,0.9-0.9,0.9
		c-7.1,0-14.1,0-21.2,0c-1,0-0.9-0.6-0.9-1.2c0-7.3,0-14.5,0-21.8c-0.3-0.3-0.6-0.6-1-1c-7.2,0-14.4,0-21.6,0
		c-1.1,0-1.5-0.2-1.5-1.4c0-3.1,0-6.2,0-9.3c-0.3,0.2-0.6,0.3-1,0.5c0,3.1,0,6.2,0,9.3c0,0.8-0.4,0.9-1,0.8c0.1,0.3,0.2,0.6,0.2,1
		c0.2,0.3,0.7,0.5,0.7,0.8c0,7.1,0,14.3,0,21.4c0,0.3-0.4,0.5-0.7,0.8c-0.1,0-0.2,0-0.2,0c0.1,0.3,0.2,0.6,0.2,1
		c0.2,0.2,0.5,0.5,0.7,0.7c0.3,0.1,0.6,0.2,1,0.2c-0.1-0.7,0.2-1,0.9-1c7,0,14.1,0,21.1,0c0.8,0,1,0.2,1,1c0,7,0,14.1,0,21.1
		c0,0.7-0.3,1-1,0.9c0.1,0.3,0.2,0.6,0.2,1c0.9,0,0.7,0.7,0.7,1.2c0,7,0,13.9,0,20.9c0,0.2,0,0.5,0,0.7c0.3,0.1,0.6,0.2,1,0.2
		c0-7.2,0-14.5,0-21.7c0-1,0.2-1.4,1.3-1.4c6.8,0.1,13.7,0.1,20.5,0c1.1,0,1.3,0.4,1.3,1.4c0,7.1,0,14.3,0,21.4
		c0.3,0.1,0.6,0.2,1,0.2c0-7.2,0-14.5,0-21.7c0-1,0.2-1.4,1.3-1.4c6.8,0.1,13.7,0.1,20.5,0c1.1,0,1.3,0.4,1.3,1.4
		c0,7.1,0,14.3,0,21.4c0.3,0.1,0.6,0.2,1,0.2c0-7.2,0-14.4,0-21.6c0-1.1,0.3-1.5,1.4-1.5c6.8,0.1,13.7,0,20.5,0c0-0.3,0-0.6,0-1
		C285.8,355.2,279,355.2,272.1,355.2z M220.5,331.2c-3.5,0-7,0-10.4,0c-3.4,0-6.9,0-10.3,0c-0.8,0-1.1-0.2-1.1-1.1
		c0-7,0-13.9,0-20.9c0-0.9,0.3-1.1,1.2-1.1c6.9,0,13.8,0,20.7,0c0.9,0,1.2,0.2,1.2,1.1c0,6.9,0,13.8,0,20.7
		C221.8,331,221.5,331.2,220.5,331.2z M244.6,355.2c-7,0-13.9,0-20.9,0c-0.9,0-1.1-0.3-1.1-1.1c0-3.5,0-7,0-10.5c0-3.4,0-6.9,0-10.3
		c0-0.8,0.2-1.1,1.1-1.1c7,0,13.9,0,20.9,0c0.9,0,1.1,0.3,1.1,1.2c0,6.9,0,13.8,0,20.7C245.8,354.9,245.5,355.2,244.6,355.2z
		 M269.8,343.8c0,3.4,0,6.9,0,10.3c0,0.8-0.2,1.1-1.1,1.1c-7,0-13.9,0-20.9,0c-0.9,0-1.1-0.3-1.1-1.2c0-6.9,0-13.8,0-20.7
		c0-0.9,0.2-1.2,1.1-1.2c6.9,0,13.8,0,20.7,0c1,0,1.2,0.3,1.2,1.2C269.7,336.9,269.8,340.3,269.8,343.8z"/>
	<path class="st6" d="M300.3,356.2c7.2,0,14.5,0,21.7,0c1.1,0,1.3,0.3,1.3,1.4c0,7.4,0,14.9,0,22.3c0,1-0.2,1.4-1.3,1.4
		c-7.2,0-14.5,0-21.7,0C300.3,372.8,300.3,364.5,300.3,356.2z"/>
	<path class="st6" d="M270.7,379.2c0-7.2,0-14.4,0-21.6c0-1.1,0.3-1.5,1.4-1.5c6.8,0.1,13.7,0,20.5,0c0,0.6,0.1,1.3,0.1,1.9
		c0,7.7,0,15.4,0,23.1c-7.3,0-14.7,0-22,0C270.7,380.5,270.7,379.8,270.7,379.2z"/>
	<path class="st6" d="M300.3,308.2c7.2,0,14.5,0,21.7,0c1.1,0,1.3,0.3,1.3,1.4c0,6.8,0,13.6,0,20.4c0,1-0.2,1.4-1.3,1.4
		c-7.2,0-14.5,0-21.7,0C300.3,323.5,300.3,315.8,300.3,308.2z"/>
	<path class="st6" d="M300.3,332.2c7.2,0,14.5,0,21.7,0c1.1,0,1.3,0.3,1.3,1.4c0,6.8,0,13.6,0,20.4c0,1-0.2,1.4-1.3,1.4
		c-7.2,0-14.5,0-21.7,0C300.3,347.5,300.3,339.8,300.3,332.2z"/>
	<path class="st6" d="M323.3,265.4c-1.3-0.8-2.5-1.7-3.6-2.7c-3.5-0.3-7-0.5-10.6-0.5c-2.1,0-4.5-0.1-6.8-0.5
		c-0.6,0.5-1.3,0.9-2,1.2c0,6.8,0,13.5,0,20.3c7.2,0,14.5,0,21.7,0c1.1,0,1.3-0.3,1.3-1.4C323.3,276.4,323.3,270.9,323.3,265.4z"/>
	<path class="st6" d="M300.3,284.2c7.2,0,14.5,0,21.7,0c1.1,0,1.3,0.3,1.3,1.4c0,6.8,0,13.6,0,20.4c0,1-0.2,1.4-1.3,1.4
		c-7.2,0-14.5,0-21.7,0C300.3,299.5,300.3,291.8,300.3,284.2z"/>
	<path class="st6" d="M300.3,526.1c7.2,0,14.3,0,21.5,0c1.2,0,1.6,0.3,1.6,1.6c-0.1,7.2,0,14.3,0,21.5c-7.7,0-15.3,0-23,0
		C300.3,541.4,300.3,533.7,300.3,526.1z"/>
	<path class="st6" d="M300.3,502.1c7.2,0,14.3,0,21.5,0c1.5,0,1.5,0,1.5,1.5c0,6.7,0,13.4,0,20c0,1.1-0.2,1.5-1.4,1.5
		c-7.2-0.1-14.4,0-21.6,0C300.3,517.4,300.3,509.8,300.3,502.1z"/>
	<path class="st6" d="M300.3,382.1c7.2,0,14.3,0,21.5,0c1.5,0,1.5,0,1.5,1.5c0,6.7,0,13.4,0,20c0,1.1-0.2,1.5-1.4,1.5
		c-7.2-0.1-14.4,0-21.6,0C300.3,397.4,300.3,389.8,300.3,382.1z"/>
	<path class="st6" d="M300.3,406.1c7.2,0,14.3,0,21.5,0c1.5,0,1.5,0,1.5,1.5c0,6.7,0,13.4,0,20c0,1.1-0.2,1.5-1.4,1.5
		c-7.2-0.1-14.4,0-21.6,0C300.3,421.4,300.3,413.8,300.3,406.1z"/>
	<path class="st6" d="M300.3,454.1c7.2,0,14.3,0,21.5,0c1.5,0,1.5,0,1.5,1.5c0,6.7,0,13.4,0,20c0,1.1-0.2,1.5-1.4,1.5
		c-7.2-0.1-14.4,0-21.6,0C300.3,469.4,300.3,461.8,300.3,454.1z"/>
	<path class="st6" d="M300.3,430.1c7.2,0,14.3,0,21.5,0c1.5,0,1.5,0,1.5,1.5c0,6.7,0,13.4,0,20c0,1.1-0.2,1.5-1.4,1.5
		c-7.2-0.1-14.4,0-21.6,0C300.3,445.4,300.3,437.8,300.3,430.1z"/>
	<path class="st6" d="M300.3,478.1c7.2,0,14.3,0,21.5,0c1.5,0,1.5,0,1.5,1.5c0,6.7,0,13.4,0,20c0,1.1-0.2,1.5-1.4,1.5
		c-7.2-0.1-14.4,0-21.6,0C300.3,493.4,300.3,485.8,300.3,478.1z"/>
	<path class="st7" d="M270.7,309.1c-0.2-1,0.5-1,1.2-1c6.9,0,13.8,0,20.7,0c0,0.7,0.1,1.3,0.1,2c0,6.6,0,13.1,0,19.7
		c0,0.4-0.1,0.9-0.1,1.3c-6.9,0-13.7,0-20.6,0c-1.1,0-1.3-0.3-1.3-1.4C270.7,322.9,270.7,316,270.7,309.1z"/>
	<path class="st8" d="M292.7,502.1c0,7.7,0,15.4,0,23c-6.9,0-13.8,0-20.7,0c-1.1,0-1.3-0.3-1.3-1.4c0-6.8,0-13.6,0-20.5
		c0-0.4,0.1-0.8,0.2-1.2C278.2,502.1,285.5,502.1,292.7,502.1z"/>
	<path class="st7" d="M292.6,355.2c-6.8,0-13.7,0-20.5,0c-1.2,0-1.4-0.4-1.4-1.5c0.1-7.2,0-14.4,0-21.6c7.3,0,14.6,0,21.9,0
		c0,0.8,0.1,1.5,0.1,2.3c0,6.5,0,13,0,19.5C292.7,354.3,292.7,354.8,292.6,355.2z"/>
	<path class="st8" d="M292.8,549.1c-7.3,0-14.7,0-22,0c0-7.2,0-14.4,0-21.7c0-1,0.2-1.4,1.3-1.4c6.9,0.1,13.8,0,20.7,0
		C292.7,533.7,292.7,541.4,292.8,549.1z"/>
	<path class="st6" d="M292.6,307.2c-7.3,0-14.6,0-21.9,0c0-7.4,0-14.7,0-22.1c-0.2-1,0.5-1,1.2-1c6.9,0,13.8,0,20.7,0
		c0,0.7,0.1,1.3,0.1,2c0,6.6,0,13.1,0,19.7C292.7,306.3,292.7,306.8,292.6,307.2z"/>
	<path class="st8" d="M292.7,406.1c0,7.7,0,15.4,0,23c-7.3,0-14.7,0-22,0c0-7.2,0-14.5,0-21.7c0-0.5,0.1-0.9,0.2-1.4
		C278.2,406.1,285.5,406.1,292.7,406.1z"/>
	<path class="st8" d="M292.7,430.1c0,7.7,0,15.4,0,23c-7.3,0-14.7,0-22,0c0-7.2,0-14.5,0-21.7c0-0.5,0.1-0.9,0.2-1.4
		C278.2,430.1,285.5,430.1,292.7,430.1z"/>
	<path class="st8" d="M292.7,454.1c0,7.7,0,15.4,0,23c-7.3,0-14.7,0-22,0c0-7.2,0-14.5,0-21.7c0-0.5,0.1-0.9,0.2-1.4
		C278.2,454.1,285.5,454.1,292.7,454.1z"/>
	<path class="st8" d="M292.7,382.1c0,7.7,0,15.4,0,23c-7.3,0-14.7,0-22,0c0-7.2,0-14.5,0-21.7c0-0.5,0.1-0.9,0.2-1.4
		C278.2,382.1,285.5,382.1,292.7,382.1z"/>
	<path class="st6" d="M292.7,263.4c-2-0.1-4.7-0.7-7.2-1.7c-3.3,2.5-7.1,4.5-11.4,5.7c-1.1,0.3-2.2,0.6-3.3,0.9c0,5,0,9.9,0,14.9
		c7.3,0,14.6,0,21.9,0c0-0.4,0.1-0.9,0.1-1.3C292.7,275.7,292.7,269.6,292.7,263.4C292.7,263.4,292.7,263.4,292.7,263.4z"/>
	<path class="st8" d="M292.7,478.1c0,7.7,0,15.4,0,23c-7.3,0-14.7,0-22,0c0-7.2,0-14.5,0-21.7c0-0.5,0.1-0.9,0.2-1.4
		C278.2,478.1,285.5,478.1,292.7,478.1z"/>
	<path class="st9" d="M271,478.1c-0.1,0.5-0.2,0.9-0.2,1.4c0,7.2,0,14.5,0,21.7c0.1,0.3,0.2,0.6,0.2,1c-0.1,0.4-0.2,0.8-0.2,1.2
		c0,6.8,0,13.6,0,20.5c0,1,0.2,1.4,1.3,1.4c6.9-0.1,13.8,0,20.7,0c0,0.3,0,0.6,0,1c-6.9,0-13.8,0-20.7,0c-1.1,0-1.3,0.3-1.3,1.4
		c0,7.2,0,14.4,0,21.7c-0.3,0-0.6,0-1,0c0-7.2,0-14.5,0-21.7c0-1.1-0.3-1.3-1.4-1.3c-6.8,0-13.6,0-20.4,0c-1,0-1.4,0.2-1.4,1.3
		c0.1,7.2,0,14.5,0,21.7c-0.3,0-0.6,0-1,0c0-7.2,0-14.5,0-21.7c0-0.4-0.3-0.9-0.5-1.3c0-0.3,0-0.6,0-1c0.2-0.3,0.5-0.6,0.5-0.9
		c0-7.1,0-14.1,0-21.2c0-0.3-0.3-0.6-0.5-0.9c0-0.3,0-0.6,0-1c0.2-0.3,0.5-0.6,0.5-0.9c0-7.1,0-14.1,0-21.2c0-0.3-0.3-0.6-0.5-0.9
		c0-0.3,0-0.6,0-1c0.2-0.3,0.5-0.6,0.5-0.9c0-7.1,0-14.1,0-21.2c0-0.3-0.3-0.6-0.5-0.9c0-0.3,0-0.6,0-1c0.2-0.3,0.5-0.6,0.5-0.9
		c0-7.1,0-14.1,0-21.2c0-0.3-0.3-0.6-0.5-0.9c0-0.3,0-0.6,0-1c0.2-0.3,0.5-0.6,0.5-0.9c0-7.1,0-14.1,0-21.2c0-0.3-0.3-0.6-0.5-0.9
		c0-0.3,0-0.6,0-1c0.2-0.3,0.5-0.6,0.5-0.9c0-7.1,0-14.1,0-21.2c0-0.3-0.3-0.6-0.5-0.9c0-0.3,0-0.6,0-1c1-0.5,0.3-1.5,0.5-2.2
		c0.3,0.1,0.6,0.2,1,0.2c0,2.2-0.3,1.9,1.9,1.9c6.3,0,12.7,0,19,0c2.1,0,2.1,0,2.1-2.2c0.3,0.1,0.6,0.2,1,0.2c0,0.6,0,1.3,0,1.9
		c0.1,0.3,0.2,0.6,0.2,1c-0.1,0.5-0.2,0.9-0.2,1.4c0,7.2,0,14.5,0,21.7c0.1,0.3,0.2,0.6,0.2,1c-0.1,0.5-0.2,0.9-0.2,1.4
		c0,7.2,0,14.5,0,21.7c0.1,0.3,0.2,0.6,0.2,1c-0.1,0.5-0.2,0.9-0.2,1.4c0,7.2,0,14.5,0,21.7c0.1,0.3,0.2,0.6,0.2,1
		c-0.1,0.5-0.2,0.9-0.2,1.4c0,7.2,0,14.5,0,21.7C270.8,477.4,270.9,477.8,271,478.1z M269.3,429.1c0.2-0.4,0.5-0.8,0.5-1.2
		c0-6.9,0-13.7,0-20.6c0-1-0.3-1.3-1.3-1.3c-6.8,0-13.7,0-20.5,0c-1.1,0-1.3,0.4-1.3,1.4c0,7.2,0,14.5,0,21.7c0.1,0.3,0.2,0.6,0.2,1
		c-0.1,0.3-0.2,0.5-0.2,0.8c0,7.1,0,14.2,0,21.4c0,0.7,0.2,0.9,0.9,0.9c7.1,0,14.2,0,21.2,0c0.6,0,0.9-0.2,0.9-0.9
		c0-7.1,0-14.2,0-21.4c0-0.3-0.4-0.5-0.7-0.8C269.1,429.8,269.2,429.4,269.3,429.1z M269.8,513.7c0-3.5,0-7,0-10.4
		c0-0.9-0.2-1.2-1.2-1.2c-6.9,0-13.8,0-20.7,0c-0.9,0-1.1,0.3-1.1,1.2c0,6.9,0,13.8,0,20.7c0,0.9,0.2,1.2,1.1,1.2c7,0,13.9,0,20.9,0
		c0.8,0,1.1-0.3,1.1-1.1C269.7,520.6,269.8,517.2,269.8,513.7z M258.2,501.1c3.5,0,7,0,10.5,0c0.8,0,1-0.2,1-1c0-7,0-14,0-21
		c0-0.9-0.3-1.1-1.1-1.1c-7,0-13.9,0-20.9,0c-0.8,0-1.1,0.2-1.1,1.1c0,7,0,13.9,0,20.9c0,0.9,0.3,1.1,1.2,1.1
		C251.3,501.1,254.7,501.1,258.2,501.1z M269.8,465.7c0-3.5,0-7,0-10.5c0-0.8-0.2-1-1-1c-7,0-14,0-21,0c-0.9,0-1.1,0.3-1.1,1.1
		c0,7,0,13.9,0,20.9c0,0.8,0.2,1.1,1.1,1.1c7,0,13.9,0,20.9,0c0.9,0,1.1-0.3,1.1-1.2C269.7,472.5,269.8,469.1,269.8,465.7z
		 M258.2,405.1c3.5,0,7,0,10.4,0c0.9,0,1.2-0.2,1.2-1.1c0-7,0-13.9,0-20.9c0-0.9-0.3-1.1-1.1-1.1c-7,0-13.9,0-20.9,0
		c-0.8,0-1.1,0.2-1.1,1.1c0,7,0,13.9,0,20.9c0,0.9,0.3,1.1,1.2,1.1C251.3,405.1,254.7,405.1,258.2,405.1z"/>
	<path class="st10" d="M292.6,332.2c-7.3,0-14.6,0-21.9,0c-0.3-0.3-0.6-0.6-1-1c0-7.4,0-14.9,0-22.3c0.3,0.1,0.6,0.2,1,0.2
		c0,6.9,0,13.8,0,20.7c0,1,0.2,1.4,1.3,1.4c6.9-0.1,13.7,0,20.6,0C292.6,331.5,292.6,331.8,292.6,332.2z"/>
	<path class="st11" d="M271,502.1c-0.1-0.3-0.2-0.6-0.2-1c7.3,0,14.7,0,22,0c0,0.3,0,0.6,0,1C285.5,502.1,278.2,502.1,271,502.1z"/>
	<path class="st11" d="M271,382.1c-0.1-0.3-0.2-0.6-0.2-1c7.3,0,14.7,0,22,0c0,0.3,0,0.6,0,1C285.5,382.1,278.2,382.1,271,382.1z"/>
	<path class="st11" d="M271,406.1c-0.1-0.3-0.2-0.6-0.2-1c7.3,0,14.7,0,22,0c0,0.3,0,0.6,0,1C285.5,406.1,278.2,406.1,271,406.1z"/>
	<path class="st11" d="M271,478.1c-0.1-0.3-0.2-0.6-0.2-1c7.3,0,14.7,0,22,0c0,0.3,0,0.6,0,1C285.5,478.1,278.2,478.1,271,478.1z"/>
	<path class="st11" d="M271,454.1c-0.1-0.3-0.2-0.6-0.2-1c7.3,0,14.7,0,22,0c0,0.3,0,0.6,0,1C285.5,454.1,278.2,454.1,271,454.1z"/>
	<path class="st11" d="M271,430.1c-0.1-0.3-0.2-0.6-0.2-1c7.3,0,14.7,0,22,0c0,0.3,0,0.6,0,1C285.5,430.1,278.2,430.1,271,430.1z"/>
	<path class="st5" d="M374.4,283.2c-0.7,0-1.5,0-2.2,0v1c1.5,0,2.9,0,4.4,0C375.9,283.8,375.2,283.5,374.4,283.2z"/>
	<path class="st5" d="M397.6,331.2c-1,0-1.4-0.2-1.4-1.3c0.1-6.8,0-13.7,0-20.5c0-1,0.3-1.3,1.3-1.3c3,0,6.1,0,9.1,0
		c-0.3-0.3-0.6-0.6-0.8-1c-2.8,0-5.6,0-8.4,0c-0.9,0-1.2-0.2-1.2-1.1c0-2.2,0-4.4,0-6.6c-0.3-0.1-0.6-0.3-1-0.4c0,2.3,0,4.6,0,6.9
		c0,1-0.3,1.3-1.3,1.3c-6.8,0-13.7,0-20.5,0c-1.1,0-1.3-0.4-1.3-1.4c0-7,0-14,0-21h-1c0,7.1,0,14.1,0,21.2c0,0.5,0.2,1.2-0.7,1.2
		c-0.1,0-0.2,0-0.2,0v1c0.7-0.1,1,0.2,1,0.9c0,7.1,0,14.1,0,21.2c0,0.5,0,1-0.7,0.9c-0.1,0-0.2,0-0.2,0v1c0.7-0.1,1,0.2,1,0.9
		c0,7.1,0,14.1,0,21.2c0,0.5,0,1-0.7,0.9c-0.1,0-0.2,0-0.2,0v1c0.7-0.1,1,0.2,1,0.9c0,7.8,0,15.5,0,23.3c0,0.3-0.1,0.5-0.2,0.8v1
		c0.1,0.3,0.2,0.6,0.2,1h1c0-0.2,0-0.5,0-0.7l-0.5-0.5c0.2-0.2,0.3-0.5,0.5-0.7c0-7.9,0-15.9,0-23.8c0-0.5-0.2-1.2,0.7-1.2
		c0.3-0.2,0.6-0.5,0.9-0.5c6.4,0,12.9,0,19.3,0c0.4,0,0.7,0.3,1.1,0.5c0.1,0,0.2,0,0.2,0v-1c-7,0-14,0-21,0c-1,0-1.4-0.2-1.4-1.3
		c0.1-6.8,0-13.7,0-20.5c0-1,0.3-1.3,1.3-1.3c6.8,0,13.7,0,20.5,0c1.1,0,1.3,0.4,1.3,1.4c0,7.2,0,14.5,0,21.7l1,1
		c7.4,0,14.9,0,22.3,0v-1c-7,0-14,0-21,0c-1,0-1.4-0.2-1.4-1.3c0.1-6.8,0.1-13.7,0-20.5c0-1.1,0.4-1.3,1.4-1.3c7,0,14,0,21,0v-1
		C411.6,331.2,404.6,331.2,397.6,331.2z M395.3,330.2c0,0.8-0.3,1-1,1c-3.5,0-7,0-10.5,0c-3.4,0-6.9,0-10.3,0
		c-0.9,0-1.2-0.2-1.2-1.1c0-7,0-13.9,0-20.9c0-0.9,0.3-1.1,1.1-1.1c7,0,13.9,0,20.9,0c0.8,0,1.1,0.2,1.1,1.1
		C395.3,316.2,395.3,323.2,395.3,330.2z"/>
	<path class="st10" d="M393.9,429.1c-7.2,0-14.5,0-21.7,0c-0.5,0.3-0.4,0.6,0,1c7.2,0,14.4,0,21.6,0c1.2,0,1.5,0.4,1.5,1.5
		c0,6.8,0,13.5,0,20.3c0,1.1-0.4,1.3-1.4,1.3c-7.2,0-14.5,0-21.7,0c-0.5,0.3-0.4,0.6,0,1c7.2,0,14.4,0,21.6,0c1.2,0,1.5,0.4,1.5,1.5
		c0,6.8,0,13.5,0,20.3c0,1.1-0.4,1.3-1.4,1.3c-7.2,0-14.5,0-21.7,0c-0.5,0.3-0.4,0.6,0,1c7.2,0,14.4,0,21.6,0c1.2,0,1.5,0.4,1.5,1.5
		c0,6.8,0,13.5,0,20.3c0,1.1-0.4,1.3-1.4,1.3c-7.2,0-14.5,0-21.7,0c-0.5,0.3-0.4,0.6,0,1c7.2,0,14.4,0,21.6,0c1.2,0,1.5,0.4,1.5,1.5
		c0,5.9,0,11.8,0,17.7c0.3-0.4,0.6-0.8,0.9-1.1c0-5.6,0-11.2,0-16.8c0-0.9,0.3-1.2,1.2-1.2c6.3,0,12.6,0,18.9,0
		c0.3-0.3,0.7-0.6,1-0.9c-3.2,0-6.3,0-9.5,0c-3.5,0-7,0-10.4,0c-0.9,0-1.2-0.3-1.1-1.2c0-6.9,0-13.8,0-20.6c0-0.9,0.3-1.3,1.2-1.3
		c6.9,0,13.8,0,20.6,0c0.9,0,1.2,0.3,1.2,1.2c0,6.4,0,12.8,0,19.1c0.3-0.6,0.6-1.1,0.9-1.7c0-0.1,0.1-0.1,0.1-0.2
		c0-6.1,0-12.3,0-18.4c0-0.3,0-0.6,0-1l0-23c0-0.3,0-0.6,0-1c0-7.7,0-15.4,0-23c0-0.3,0-0.6,0-1c0-7.7,0-15.4,0-23c0-0.3,0-0.6,0-1
		c0-7.7,0-15.4,0-23c0-0.3,0-0.6,0-1c0-8,0-16,0-24c-0.3-0.1-0.6-0.2-1-0.2c0,7.6,0,15.3,0,22.9c0,1-0.2,1.4-1.3,1.4
		c-6.8-0.1-13.7-0.1-20.5,0c-1.1,0-1.3-0.4-1.3-1.4c0-7.5,0-15.1,0-22.6c-0.3-0.1-0.6-0.2-1-0.2c0,7.7,0,15.3,0,23
		c0,1-0.3,1.3-1.3,1.3c-7.3,0-14.5,0-21.8,0c-0.2,0.2-0.3,0.5-0.5,0.7c0.2,0.1,0.3,0.2,0.5,0.2c7.2,0,14.4,0,21.6,0
		c1.2,0,1.5,0.4,1.5,1.5c0,6.8,0,13.5,0,20.3c0,1.1-0.4,1.3-1.4,1.3c-7.2,0-14.5,0-21.7,0c-0.5,0.3-0.4,0.6,0,1c7.2,0,14.4,0,21.6,0
		c1.2,0,1.5,0.4,1.5,1.5c0,6.8,0,13.5,0,20.3C395.3,428.9,394.9,429.1,393.9,429.1z M418.2,477.1c-7,0-13.9,0-20.9,0
		c-0.8,0-1.1-0.3-1.1-1.1c0-3.5,0-7,0-10.4c0-3.4,0-6.8,0-10.2c0-1,0.3-1.3,1.3-1.3c6.8,0,13.7,0,20.5,0c0.9,0,1.3,0.3,1.3,1.2
		c0,6.9,0,13.8,0,20.8C419.3,476.9,419,477.1,418.2,477.1z M396.2,383.3c0-0.9,0.3-1.2,1.3-1.2c6.8,0,13.7,0,20.5,0
		c1,0,1.3,0.4,1.3,1.3c0,3.4,0,6.8,0,10.2c0,3.5,0,7,0,10.4c0,0.8-0.2,1.1-1.1,1.1c-7,0-13.9,0-20.9,0c-0.8,0-1.1-0.2-1.1-1.1
		C396.3,397.1,396.3,390.2,396.2,383.3z M419.3,428.2c0,0.9-0.4,0.9-1.1,0.9c-3.5,0-7,0-10.4,0c-3.5,0-7,0-10.4,0
		c-0.8,0-1.1-0.3-1.1-1.1c0-6.9,0-13.8,0-20.8c0-0.9,0.3-1.2,1.2-1.2c6.9,0,13.8,0,20.8,0c0.8,0,1.1,0.3,1.1,1.1
		C419.3,414.2,419.3,421.2,419.3,428.2z M396.2,431.4c0-1,0.3-1.3,1.3-1.3c6.8,0,13.6,0,20.4,0c1.1,0,1.4,0.4,1.4,1.4
		c0,6.8,0,13.7,0,20.5c0,0.9-0.2,1.2-1.1,1.2c-3.5,0-7,0-10.4,0c-3.4,0-6.9,0-10.3,0c-0.9,0-1.2-0.2-1.2-1.1
		C396.3,445.1,396.3,438.3,396.2,431.4z"/>
	<path class="st10" d="M392.4,525.1c-6.7,0-13.5,0-20.2,0c-0.5,0.3-0.4,0.6,0,1c6.5,0,13,0,19.5,0
		C392,525.8,392.2,525.4,392.4,525.1z"/>
	<path class="st6" d="M324.2,549.1c0-7.7,0-15.3,0-23c7.4,0,14.9,0,22.3,0c0.9,0.1,0.7,0.8,0.7,1.4c0,7.2,0,14.4,0,21.6
		C339.6,549.1,331.9,549.1,324.2,549.1z"/>
	<path class="st6" d="M389.3,530.1c0.8-1.4,1.7-2.7,2.5-4c-6.5,0-13,0-19.5,0c0,7.7,0,15.3,0,23l6.6,0
		C379.3,541.8,382.7,534.7,389.3,530.1z"/>
	<path class="st6" d="M348.2,549.1c0-7.2,0-14.4,0-21.6c0-1.1,0.3-1.4,1.4-1.4c6.7,0,13.4,0,20.1,0c1.2,0,1.5,0.5,1.5,1.6
		c0,7.2,0,14.3,0,21.5C363.6,549.1,355.9,549.1,348.2,549.1z"/>
	<path class="st11" d="M224,382.1c7.1,0,14.2,0,21.3,0v-1c-6.9,0-13.8,0-20.7,0c-2.2,0-1.9,0.3-1.9-1.9c-0.3-0.1-0.6-0.2-1-0.2
		c0,2.2,0,2.2-2.1,2.2c-6.3,0-12.7,0-19,0c-2.2,0-1.9,0.3-1.9-1.9h-1c0,0.2,0,0.3,0,0.5c0.2,1.1-0.3,1.5-1.4,1.5
		c-7.2-0.1-14.4,0-21.6,0c0,0.3,0,0.6,0,1c7.2,0,14.5,0,21.7,0c1,0,1.4,0.2,1.4,1.3c-0.1,6.8-0.1,13.7,0,20.5c0,1.1-0.4,1.3-1.4,1.3
		c-7.2,0-14.5,0-21.7,0c0,0.3,0,0.6,0,1c7.2,0,14.5,0,21.7,0c1,0,1.4,0.2,1.4,1.3c-0.1,6.8-0.1,13.7,0,20.5c0,1.1-0.4,1.3-1.4,1.3
		c-7.2,0-14.5,0-21.7,0c0,0.3,0,0.6,0,1c7.2,0,14.5,0,21.7,0c1,0,1.4,0.2,1.4,1.3c-0.1,6.8-0.1,13.7,0,20.5c0,1.1-0.4,1.3-1.4,1.3
		c-7.2,0-14.5,0-21.7,0c0,0.3,0,0.6,0,1c7.2,0,14.5,0,21.7,0c1,0,1.4,0.2,1.4,1.3c-0.1,6.8-0.1,13.7,0,20.5c0,1.1-0.4,1.3-1.4,1.3
		c-7.2,0-14.5,0-21.7,0c0,0.3,0,0.6,0,1c7.2,0,14.5,0,21.7,0c1,0,1.4,0.2,1.4,1.3c-0.1,6.8-0.1,13.7,0,20.5c0,1.1-0.4,1.3-1.4,1.3
		c-7.2,0-14.5,0-21.7,0c0,0.3,0,0.6,0,1c7.2,0,14.5,0,21.7,0c1,0,1.4,0.2,1.4,1.3c-0.1,6.8-0.1,13.7,0,20.5c0,1.1-0.4,1.3-1.4,1.3
		c-4.8,0-9.6,0-14.4,0c0.3,0.3,0.7,0.6,1,1c4.5,0,8.9,0,13.4,0c1,0,1.4,0.2,1.4,1.3c0,4,0,8,0,12.1c0.3,0.3,0.7,0.6,1,0.9
		c0-4.3,0-8.6,0-13c0-1.1,0.3-1.3,1.4-1.3c6.8,0,13.6,0,20.4,0c1,0,1.4,0.2,1.4,1.3c-0.1,7.2,0,14.5,0,21.7c0.3,0,0.6,0,1,0
		c0-7.2,0-14.5,0-21.7c0-1.1,0.3-1.3,1.4-1.3c7.1,0,14.1,0,21.2,0v-1c-7.1,0-14.1,0-21.2,0c-1.1,0-1.4-0.3-1.4-1.4
		c0-6.8,0-13.6,0-20.4c0-0.4,0.3-0.9,0.5-1.3c-0.2-0.3-0.3-0.6-0.5-1c0-7.3,0-14.5,0-21.8c0-0.4,0.3-0.9,0.5-1.3
		c-0.2-0.3-0.3-0.6-0.5-1c0-7.3,0-14.5,0-21.8c0-0.4,0.3-0.9,0.5-1.3c-0.2-0.3-0.3-0.6-0.5-1c0-7.3,0-14.5,0-21.8
		c0-0.4,0.3-0.9,0.5-1.3c-0.2-0.3-0.3-0.6-0.5-1c0-7.3,0-14.5,0-21.8c0-0.4,0.3-0.9,0.5-1.3c-0.2-0.3-0.3-0.6-0.5-1
		c0-7.3,0-14.5,0-21.8C222.7,382.3,223,382.1,224,382.1z M200,382.1c6.8,0.1,13.7,0,20.5,0c1,0,1.3,0.3,1.3,1.3c0,6.9,0,13.7,0,20.6
		c0,0.4-0.3,0.8-0.5,1.2c-0.2,0.3-0.3,0.6-0.5,1c0.7-0.1,1,0.2,1,0.9c0,7,0,14.1,0,21.1c0,0.8-0.3,1-1,1c-7,0-14,0-21,0
		c-0.8,0-1-0.2-1-1c0-7,0-14.1,0-21.1c0-0.3,0.3-0.6,0.5-0.9c-0.2-0.3-0.3-0.6-0.5-1c0-7.2,0-14.5,0-21.7
		C198.7,382.4,198.9,382,200,382.1z M198.7,441.6c0-3.5,0-7,0-10.4c0-0.8,0.2-1.1,1.1-1.1c7,0,14,0,21,0c0.8,0,1,0.3,1,1
		c0,7,0,14,0,21c0,0.9-0.3,1.1-1.1,1c-7,0-13.9,0-20.9,0c-0.9,0-1.1-0.3-1.1-1.1C198.7,448.6,198.7,445.1,198.7,441.6z M221.8,524.1
		c0,0.8-0.3,1-1,1c-7,0-14,0-21,0c-0.9,0-1.1-0.3-1-1.1c0-7,0-13.9,0-20.9c0-0.8,0.3-1.1,1.1-1.1c3.5,0,7,0,10.4,0c3.5,0,7,0,10.4,0
		c0.8,0,1.1,0.2,1.1,1.1C221.7,510.1,221.8,517.1,221.8,524.1z M221.8,489.6c0,3.4,0,6.9,0,10.3c0,0.9-0.2,1.3-1.2,1.2
		c-6.9,0-13.8,0-20.7,0c-0.9,0-1.2-0.3-1.2-1.2c0-6.9,0-13.8,0-20.7c0-1,0.4-1.2,1.2-1.2c6.9,0,13.7,0,20.6,0c1,0,1.2,0.3,1.2,1.2
		C221.7,482.7,221.8,486.1,221.8,489.6z M220.5,477.1c-3.5,0-7,0-10.4,0c-3.4,0-6.9,0-10.3,0c-0.8,0-1.1-0.2-1.1-1.1
		c0-7,0-13.9,0-20.9c0-0.9,0.3-1.1,1.2-1.1c6.9,0,13.8,0,20.7,0c0.9,0,1.2,0.2,1.2,1.1c0,6.9,0,13.8,0,20.7
		C221.8,476.9,221.5,477.1,220.5,477.1z"/>
	<path class="st8" d="M246.7,549.1c0-7.2,0-14.5,0-21.7c0-1.1,0.3-1.3,1.4-1.3c6.8,0,13.6,0,20.4,0c1,0,1.4,0.2,1.4,1.3
		c-0.1,7.2,0,14.5,0,21.7C262.1,549.1,254.4,549.1,246.7,549.1z"/>
	<path class="st8" d="M222.7,549.1c0-7.2,0-14.5,0-21.7c0-1.1,0.3-1.3,1.4-1.3c7.1,0,14.1,0,21.2,0c0.2,0.4,0.5,0.9,0.5,1.3
		c0,7.2,0,14.5,0,21.7C238.1,549.1,230.4,549.1,222.7,549.1z"/>
	<path class="st8" d="M221.8,527.4c0-1.1-0.3-1.3-1.4-1.3c-6.8,0-13.6,0-20.4,0c-1,0-1.4,0.2-1.4,1.3c0,4.3,0,8.6,0,13
		c2.5,2.5,4.6,5.4,6,8.7c5.7,0,11.4,0,17,0C221.8,541.8,221.7,534.6,221.8,527.4z"/>
	<path class="st8" d="M189.5,534.7c3.1,1,5.9,2.7,8.3,4.8c0-4,0-8,0-12.1c0-1.1-0.3-1.3-1.4-1.3c-4.5,0-8.9,0-13.4,0
		C185.6,528.6,187.8,531.4,189.5,534.7z"/>
	<path class="st11" d="M149.8,407.4c-0.1,6.8-0.1,13.7,0,20.5c0,1.1-0.4,1.3-1.4,1.3c-3.7,0-7.3,0-11,0c0,0.3,0.1,0.6,0.1,1
		c3.6,0,7.3,0,10.9,0c1,0,1.4,0.2,1.4,1.3c-0.1,6.8-0.1,13.7,0,20.5c0,0.5-0.1,0.8-0.2,1c0.4,0.8,0.8,1.7,1.2,2.6c0,0,0,0,0,0
		c0-1.1,0.4-1.3,1.4-1.3c7.1,0,14.1,0,21.2,0c0.1-0.3,0.2-0.6,0.2-1c-7.1,0-14.3,0-21.4,0c-1,0-1.4-0.2-1.4-1.3
		c0.1-6.8,0.1-13.7,0-20.5c0-1.1,0.4-1.3,1.4-1.3c7.1,0,14.1,0,21.2,0c0.1-0.3,0.2-0.6,0.2-1c-7.1,0-14.3,0-21.4,0
		c-1,0-1.4-0.2-1.4-1.3c0.1-6.8,0.1-13.7,0-20.5c0-1.1,0.4-1.3,1.4-1.3c7.1,0,14.1,0,21.2,0c0.1-0.3,0.2-0.6,0.2-1
		c-7.1,0-14.3,0-21.4,0c-1,0-1.4-0.2-1.4-1.3c0.1-6.8,0.1-13.7,0-20.5c0-1.1,0.4-1.3,1.4-1.3c7.1,0,14.1,0,21.2,0
		c0.1-0.3,0.2-0.6,0.2-1h-22.7c0-0.6-0.1-1.1-0.1-1.7h-1c0,0.5,0,1,0,1.7h-9.1c-0.1,0.3-0.2,0.6-0.4,1c2.7,0,5.4,0,8.1,0
		c1,0,1.4,0.2,1.4,1.3c-0.1,6.8-0.1,13.7,0,20.5c0,1.1-0.4,1.3-1.4,1.3c-4,0-7.9,0-11.9,0c0,0.3-0.1,0.6-0.1,1c4,0,8,0,12,0
		C149.4,406.1,149.8,406.2,149.8,407.4z"/>
	<path class="st11" d="M173.5,501.1c-3.1,0-6.2,0-9.3,0c0.2,0.3,0.3,0.6,0.5,1c2.9,0,5.7,0,8.6,0
		C173.4,501.8,173.4,501.4,173.5,501.1z"/>
	<path class="st11" d="M155.9,477.1c0.1,0.3,0.1,0.6,0.2,0.9c5.7,0,11.4,0,17.2,0c0.1-0.3,0.2-0.6,0.2-1
		C167.7,477.1,161.8,477.1,155.9,477.1z"/>
	<path class="st12" d="M173.3,502.1c0.2,0.3,0.5,0.6,0.5,0.9c0,5.2,0,10.4,0,15.6c0.3,0.2,0.7,0.4,1,0.7c0-5.7,0-11.5,0-17.2
		c0-0.3,0-0.6,0-1c0-7.7,0-15.4,0-23c0-0.3,0-0.6,0-1l0-23c0-0.3,0-0.6,0-1c0-7.7,0-15.4,0-23c0-0.3,0-0.6,0-1l0-23c0-0.3,0-0.6,0-1
		c0-7.7,0-15.4,0-23c0-0.3,0-0.6,0-1c0-0.6,0-1.1,0-1.7h-1c-0.1,0.6-0.2,1.1-0.2,1.7c-0.1,0.3-0.2,0.6-0.2,1
		c0.2,0.3,0.5,0.6,0.5,0.9c0,7.1,0,14.2,0,21.2c0,0.3-0.1,0.6-0.2,0.9c-0.1,0.3-0.2,0.6-0.2,1c0.2,0.3,0.5,0.6,0.5,0.9
		c0,7.1,0,14.2,0,21.2c0,0.3-0.1,0.6-0.2,0.9c-0.1,0.3-0.2,0.6-0.2,1c0.2,0.3,0.5,0.6,0.5,0.9c0,7.1,0,14.2,0,21.2
		c0,0.3-0.1,0.6-0.2,0.9c-0.1,0.3-0.2,0.6-0.2,1c0.2,0.3,0.5,0.6,0.5,0.9c0,7.1,0,14.2,0,21.2c0,0.3-0.1,0.6-0.2,0.9
		c-0.1,0.3-0.2,0.6-0.2,1c0.2,0.3,0.5,0.6,0.5,0.9c0,7.1,0,14.2,0,21.2c0,0.3-0.1,0.6-0.2,0.9C173.4,501.4,173.4,501.8,173.3,502.1z
		"/>
	<path class="st6" d="M324.2,381.1c0-7.9,0-15.7,0-23.6c0-1,0.2-1.4,1.3-1.4c6.8,0.1,13.7,0,20.5,0c1,0,1.3,0.3,1.3,1.3
		c0,7.5,0,15,0,22.5c0,0.4-0.3,0.8-0.5,1.2C339.3,381.1,331.8,381.1,324.2,381.1z"/>
	<path class="st6" d="M370.3,381.1c-6.9,0-13.9,0-20.8,0c-1,0-1.3-0.3-1.3-1.3c0-7.7,0-15.3,0-23c7,0,14,0,21,0
		c1.1,0,1.4,0.4,1.4,1.4c0,7,0,14.1,0,21.1C370.5,379.9,370.4,380.5,370.3,381.1z"/>
	<path class="st6" d="M347.3,343.7c0,3.5,0,7,0,10.4c0,0.8-0.3,1.1-1.1,1.1c-7,0-13.9,0-20.9,0c-0.9,0-1.1-0.3-1.1-1.2
		c0-6.9,0-13.8,0-20.7c0-0.9,0.3-1.2,1.2-1.2c6.9,0,13.8,0,20.7,0c1,0,1.2,0.4,1.2,1.2C347.3,336.8,347.3,340.3,347.3,343.7z"/>
	<path class="st6" d="M347.3,319.8c0,3.4,0,6.9,0,10.3c0,0.8-0.2,1.1-1.1,1.1c-7,0-14,0-21,0c-0.8,0-1-0.3-1-1c0-7,0-14,0-21
		c0-0.9,0.3-1.1,1.1-1.1c7,0,13.9,0,20.9,0c0.8,0,1.1,0.3,1.1,1.1C347.3,312.8,347.3,316.3,347.3,319.8z"/>
	<path class="st6" d="M341.6,268.2c-1.8,0.4-3.7,0.7-5.6,0.7c-4.3,0-8.3-1.1-11.8-3c0,5.3,0,10.7,0,16c0,1.1,0.4,1.3,1.4,1.3
		c7,0,14,0,21,0c0.2,0,0.5,0,0.7,0c0-3.9,0-7.8,0-11.7c-1.3-0.6-2.6-1.1-3.9-1.7C342.6,269.4,342,268.8,341.6,268.2z"/>
	<path class="st6" d="M347.3,284.9c0,7,0,14,0,21c0,1-0.2,1.4-1.3,1.4c-6.8-0.1-13.7,0-20.5,0c-1,0-1.3-0.3-1.3-1.3
		c0-6.8,0-13.7,0-20.5c0-1.1,0.4-1.3,1.4-1.3c7,0,14,0,21,0C346.8,284.4,347,284.6,347.3,284.9z"/>
	<path class="st6" d="M392.4,525.1c0.1-0.1,0.2-0.3,0.3-0.4c0.8-1.2,1.7-2.3,2.6-3.4c0-5.9,0-11.8,0-17.7c0-1.1-0.3-1.5-1.5-1.5
		c-7.2,0-14.4,0-21.6,0c0,7.7,0,15.4,0,23C379,525.1,385.7,525.1,392.4,525.1z"/>
	<path class="st6" d="M346.6,382.1c0.2,0.3,0.7,0.7,0.7,1c0,7.1,0,14.1,0,21.2c0,0.3-0.3,0.5-0.5,0.8c-7.5,0-15,0-22.6,0
		c0-7.7,0-15.4,0-23C331.7,382.1,339.1,382.1,346.6,382.1z"/>
	<path class="st6" d="M324.2,525.1c0-7.7,0-15.4,0-23c7.4,0,14.9,0,22.3,0c0.2,0.3,0.7,0.7,0.7,1c0,7.1,0,14.1,0,21.2
		c0,0.3-0.3,0.5-0.5,0.8C339.3,525.1,331.8,525.1,324.2,525.1z"/>
	<path class="st6" d="M372.2,406.1c7.2,0,14.4,0,21.6,0c1.2,0,1.5,0.4,1.5,1.5c0,6.8,0,13.5,0,20.3c0,1.1-0.4,1.3-1.4,1.3
		c-7.2,0-14.5,0-21.7,0C372.2,421.4,372.2,413.8,372.2,406.1z"/>
	<path class="st6" d="M346.6,406.1c0.2,0.3,0.7,0.7,0.7,1c0,7.1,0,14.1,0,21.2c0,0.3-0.3,0.5-0.5,0.8c-7.5,0-15,0-22.6,0
		c0-7.7,0-15.4,0-23C331.7,406.1,339.1,406.1,346.6,406.1z"/>
	<path class="st6" d="M372.2,430.1c7.2,0,14.4,0,21.6,0c1.2,0,1.5,0.4,1.5,1.5c0,6.8,0,13.5,0,20.3c0,1.1-0.4,1.3-1.4,1.3
		c-7.2,0-14.5,0-21.7,0C372.2,445.4,372.2,437.8,372.2,430.1z"/>
	<path class="st6" d="M346.6,430.1c0.2,0.3,0.7,0.7,0.7,1c0,7.1,0,14.1,0,21.2c0,0.3-0.3,0.5-0.5,0.8c-7.5,0-15,0-22.6,0
		c0-7.7,0-15.4,0-23C331.7,430.1,339.1,430.1,346.6,430.1z"/>
	<path class="st6" d="M324.2,477.1c0-7.7,0-15.4,0-23c7.4,0,14.9,0,22.3,0c0.2,0.3,0.7,0.7,0.7,1c0,7.1,0,14.1,0,21.2
		c0,0.3-0.3,0.5-0.5,0.8C339.3,477.1,331.8,477.1,324.2,477.1z"/>
	<path class="st6" d="M372.2,382.1c7.2,0,14.4,0,21.6,0c1.2,0,1.5,0.4,1.5,1.5c0,6.8,0,13.5,0,20.3c0,1.1-0.4,1.3-1.4,1.3
		c-7.2,0-14.5,0-21.7,0c0-7.4,0-14.7,0-22.1c0-0.2,0-0.5,0-0.7C372.2,382.2,372.2,382.2,372.2,382.1z"/>
	<path class="st6" d="M371,382.1c0.1,0.3,0.2,0.6,0.2,1c0,6.9,0,13.8,0,20.7c0,1-0.2,1.4-1.3,1.4c-6.8-0.1-13.7,0-20.5,0
		c-1,0-1.3-0.3-1.3-1.3c0-6.8,0.1-13.5,0-20.3c0-1.3,0.4-1.5,1.6-1.5C356.9,382.1,364,382.1,371,382.1z"/>
	<path class="st6" d="M372.2,454.1c7.2,0,14.4,0,21.6,0c1.2,0,1.5,0.4,1.5,1.5c0,6.8,0,13.5,0,20.3c0,1.1-0.4,1.3-1.4,1.3
		c-7.2,0-14.5,0-21.7,0C372.2,469.4,372.2,461.8,372.2,454.1z"/>
	<path class="st6" d="M346.6,478.1c0.2,0.3,0.7,0.7,0.7,1c0,7.1,0,14.1,0,21.2c0,0.3-0.3,0.5-0.5,0.8c-7.5,0-15,0-22.6,0
		c0-7.7,0-15.4,0-23C331.7,478.1,339.1,478.1,346.6,478.1z"/>
	<path class="st6" d="M372.2,478.1c7.2,0,14.4,0,21.6,0c1.2,0,1.5,0.4,1.5,1.5c0,6.8,0,13.5,0,20.3c0,1.1-0.4,1.3-1.4,1.3
		c-7.2,0-14.5,0-21.7,0C372.2,493.4,372.2,485.8,372.2,478.1z"/>
	<path class="st6" d="M359.6,429.1c-3.4,0-6.9,0-10.3,0c-0.8,0-1.1-0.2-1.1-1.1c0-6.9,0-13.8,0-20.7c0-0.9,0.3-1.3,1.3-1.2
		c6.8,0,13.7,0,20.5,0c0.9,0,1.3,0.4,1.3,1.3c0,7,0,13.9,0,20.9c0,0.9-0.4,0.9-1.1,0.9C366.7,429.1,363.1,429.1,359.6,429.1z"/>
	<path class="st6" d="M359.8,453.1c-3.4,0-6.9,0-10.3,0c-1,0-1.3-0.3-1.3-1.3c0-6.8,0-13.6,0-20.4c0-1,0.3-1.4,1.4-1.4
		c6.8,0,13.6,0,20.4,0c0.9,0,1.3,0.3,1.3,1.2c0,7,0,14,0,21c0,0.9-0.5,0.9-1.1,0.8C366.7,453.1,363.3,453.1,359.8,453.1z"/>
	<path class="st6" d="M348.2,465.6c0-3.4,0-6.8,0-10.2c0-1,0.3-1.3,1.3-1.3c6.8,0,13.7,0,20.5,0c1,0,1.3,0.4,1.3,1.3
		c0,7,0,13.9,0,20.9c0,0.7-0.2,0.9-0.9,0.9c-7.1,0-14.1,0-21.2,0c-0.9,0-0.9-0.4-0.9-1.1C348.2,472.5,348.2,469.1,348.2,465.6z"/>
	<path class="st6" d="M359.8,525.1c-3.4,0-6.8,0-10.2,0c-1,0-1.4-0.2-1.4-1.3c0.1-6.8,0-13.6,0-20.4c0-1,0.3-1.4,1.4-1.4
		c6.8,0,13.6,0,20.4,0c0.9,0,1.3,0.3,1.3,1.2c0,7,0,14,0,21c0,0.9-0.5,0.8-1.1,0.8C366.7,525.1,363.3,525.1,359.8,525.1z"/>
	<path class="st6" d="M359.8,501.1c-3.5,0-7,0-10.4,0c-0.9,0-1.1-0.3-1.1-1.2c0-6.9,0-13.7,0-20.6c0-1,0.4-1.3,1.3-1.3
		c6.8,0,13.6,0,20.4,0c1,0,1.3,0.4,1.3,1.3c0,6.9,0,13.8,0,20.7c0,0.8-0.3,1-1.1,1C366.7,501.1,363.3,501.1,359.8,501.1z"/>
	<path class="st6" d="M370.6,307.2c-0.1,0-0.2,0-0.2,0c-6.9,0-13.9,0-20.8,0c-1,0-1.3-0.3-1.3-1.3c0-7,0-14,0-21.1
		c6.9,0,13.9,0,20.8,0c1.2,0,1.5,0.3,1.5,1.5C370.5,293.3,370.6,300.3,370.6,307.2z"/>
	<path class="st6" d="M370.6,331.2c-0.1,0-0.2,0-0.2,0c-6.9,0-13.9,0-20.8,0c-1,0-1.3-0.3-1.3-1.3c0-7,0-14,0-21.1
		c6.9,0,13.9,0,20.8,0c1.2,0,1.5,0.3,1.5,1.5C370.5,317.3,370.6,324.3,370.6,331.2z"/>
	<path class="st6" d="M348.2,271.9c0,3.4,0,6.7,0,10.1c0,1,0.3,1.3,1.3,1.3c7,0,14,0,21.1,0c0-0.6,0-1.1,0-1.7
		C363.1,278.3,355.7,275.2,348.2,271.9z"/>
	<path class="st6" d="M370.6,355.2c-0.1,0-0.2,0-0.2,0c-6.9,0-13.9,0-20.8,0c-1,0-1.3-0.3-1.3-1.3c0-7,0-14,0-21.1
		c6.9,0,13.9,0,20.8,0c1.2,0,1.5,0.3,1.5,1.5C370.5,341.3,370.6,348.3,370.6,355.2z"/>
	<path class="st8" d="M370.3,381.1c0.1-0.6,0.2-1.2,0.2-1.8c0-7,0-14.1,0-21.1c0-1.1-0.2-1.4-1.4-1.4c-7,0.1-14,0-21,0
		c0-0.9,0.7-0.7,1.2-0.7c7,0,13.9,0,20.9,0c0.7-0.1,1,0.2,1,0.9c0,7.8,0,15.5,0,23.3c0,0.3-0.1,0.5-0.2,0.8
		C370.8,381.1,370.6,381.1,370.3,381.1z"/>
	<path class="st8" d="M370.6,331.2c0-6.9,0-13.9,0-20.8c0-1.2-0.3-1.5-1.5-1.5c-6.9,0-13.9,0-20.8,0c0-0.9,0.7-0.7,1.2-0.7
		c7,0,13.9,0,20.9,0c0.7-0.1,1,0.2,1,0.9c0,7.1,0,14.1,0,21.2C371.3,330.8,371.3,331.3,370.6,331.2z"/>
	<path class="st8" d="M370.6,355.2c0-6.9,0-13.9,0-20.8c0-1.2-0.3-1.5-1.5-1.5c-6.9,0-13.9,0-20.8,0c0-0.9,0.7-0.7,1.2-0.7
		c7,0,13.9,0,20.9,0c0.7-0.1,1,0.2,1,0.9c0,7.1,0,14.1,0,21.2C371.3,354.8,371.3,355.3,370.6,355.2z"/>
	<path class="st8" d="M370.6,307.2c0-6.9,0-13.9,0-20.8c0-1.2-0.3-1.5-1.5-1.5c-6.9,0-13.9,0-20.8,0l0,0c0-0.2,0-0.5,0-0.7
		c7.4,0,14.9,0,22.3,0c0.2,0.2,0.5,0.5,0.7,0.7c0,7.1,0,14.1,0,21.2C371.3,306.5,371.5,307.2,370.6,307.2z"/>
	<path class="st13" d="M346.6,478.1c-7.4,0-14.9,0-22.3,0c0-0.3,0-0.6,0-1c7.5,0,15,0,22.6,0C346.7,477.4,346.6,477.8,346.6,478.1z"
		/>
	<path class="st13" d="M346.6,382.1c-7.4,0-14.9,0-22.3,0c0-0.3,0-0.6,0-1c7.5,0,15,0,22.6,0C346.7,381.4,346.6,381.8,346.6,382.1z"
		/>
	<path class="st13" d="M346.6,406.1c-7.4,0-14.9,0-22.3,0c0-0.3,0-0.6,0-1c7.5,0,15,0,22.6,0C346.7,405.4,346.6,405.8,346.6,406.1z"
		/>
	<path class="st13" d="M324.2,525.1c7.5,0,15,0,22.6,0c-0.1,0.3-0.2,0.6-0.2,1c-7.4,0-14.9,0-22.3,0
		C324.2,525.8,324.2,525.4,324.2,525.1z"/>
	<path class="st13" d="M346.6,430.1c-7.4,0-14.9,0-22.3,0c0-0.3,0-0.6,0-1c7.5,0,15,0,22.6,0C346.7,429.4,346.6,429.8,346.6,430.1z"
		/>
	<path class="st13" d="M346.6,454.1c-7.4,0-14.9,0-22.3,0c0-0.3,0-0.6,0-1c7.5,0,15,0,22.6,0C346.7,453.4,346.6,453.8,346.6,454.1z"
		/>
	<path class="st13" d="M324.2,501.1c7.5,0,15,0,22.6,0c-0.1,0.3-0.2,0.6-0.2,1c-7.4,0-14.9,0-22.3,0
		C324.2,501.8,324.2,501.4,324.2,501.1z"/>
	<path class="st5" d="M371.3,284.9c-0.2-0.2-0.5-0.5-0.7-0.7c0-0.3,0-0.6,0-1c0.2,0,0.5,0,0.7,0c0.3,0,0.6,0,1,0c0,0.3,0,0.6,0,1
		c0,0.2,0,0.5,0,0.7C371.9,284.9,371.6,284.9,371.3,284.9z"/>
	<path class="st5" d="M348.2,284.2c0,0.2,0,0.5,0,0.7c-0.3,0-0.6,0-1,0c-0.2-0.2-0.5-0.5-0.7-0.7c0-0.3,0-0.6,0-1c0.2,0,0.5,0,0.7,0
		C347.6,283.5,347.9,283.8,348.2,284.2z"/>
	<path class="st14" d="M269.8,379c0,2.2,0,2.2-2.1,2.2c-6.3,0-12.7,0-19,0c-2.2,0-1.9,0.3-1.9-1.9c0-7.2,0-14.5,0-21.7
		c0-1,0.2-1.4,1.3-1.4c6.8,0.1,13.7,0.1,20.5,0c1.1,0,1.3,0.4,1.3,1.4C269.7,364.7,269.8,371.8,269.8,379z"/>
	<path class="st14" d="M221.8,379c0,2.2,0,2.2-2.1,2.2c-6.3,0-12.7,0-19,0c-2.2,0-1.9,0.3-1.9-1.9c0-7.4,0-14.7,0-22.1
		c0-0.3,0-0.6,0-1c7.4,0,14.9,0,22.3,0c0.9,0,0.7,0.7,0.7,1.2c0,7,0,13.9,0,20.9C221.8,378.5,221.8,378.7,221.8,379z"/>
	<path class="st14" d="M245.3,381.1c-6.9,0-13.8,0-20.7,0c-2.2,0-1.9,0.3-1.9-1.9c0-7.2,0-14.5,0-21.7c0-1,0.2-1.4,1.3-1.4
		c6.8,0.1,13.7,0.1,20.5,0c1.1,0,1.3,0.4,1.3,1.4c0,7.1,0,14.3,0,21.4C245.5,379.7,246.2,380.6,245.3,381.1z"/>
	<path class="st8" d="M198.7,333.1c-0.1-0.7,0.2-1,0.9-1c7,0,14.1,0,21.1,0c0.8,0,1,0.2,1,1c0,7,0,14.1,0,21.1c0,0.7-0.3,1-1,0.9
		c-7.4,0-14.7,0-22.1,0C198.7,347.8,198.7,340.5,198.7,333.1z"/>
	<path class="st6" d="M222.7,343.6c0-3.4,0-6.9,0-10.3c0-0.8,0.2-1.1,1.1-1.1c7,0,13.9,0,20.9,0c0.9,0,1.1,0.3,1.1,1.2
		c0,6.9,0,13.8,0,20.7c0,0.9-0.2,1.2-1.1,1.2c-7,0-13.9,0-20.9,0c-0.9,0-1.1-0.3-1.1-1.1C222.7,350.6,222.7,347.1,222.7,343.6z"/>
	<path class="st6" d="M269.8,343.8c0,3.4,0,6.9,0,10.3c0,0.8-0.2,1.1-1.1,1.1c-7,0-13.9,0-20.9,0c-0.9,0-1.1-0.3-1.1-1.2
		c0-6.9,0-13.8,0-20.7c0-0.9,0.2-1.2,1.1-1.2c6.9,0,13.8,0,20.7,0c1,0,1.2,0.3,1.2,1.2C269.7,336.9,269.8,340.3,269.8,343.8z"/>
	<path class="st6" d="M269.8,308.9c0,7.4,0,14.9,0,22.3c-7.2,0-14.4,0-21.6,0c-1.1,0-1.5-0.2-1.5-1.4c0.1-6.8,0-13.6,0-20.4
		c0-1,0.3-1.3,1.3-1.3c6.9,0,13.7,0,20.6,0C269.1,308.2,269.8,307.9,269.8,308.9z"/>
	<path class="st6" d="M235.7,278.8c5.7-3.5-1.1,0.5-2.6,1.2c-1.7,0.8-3.4,1.5-5.2,2.2c-0.7,0.3-1.5,0.6-2.2,1c6.3,0,12.5,0,18.8,0
		c0.8,0,1.3,0,1.2-1.1c0-2.4,0-4.8,0-7.3C242.1,275.9,238.6,277.1,235.7,278.8z"/>
	<path class="st6" d="M255.7,272.3c-2.8,0.8-5.9,1.5-9,2.3c0,2.4,0,4.9,0,7.3c0,1.1,0.4,1.3,1.4,1.3c7.2,0,14.5,0,21.7,0
		c0-4.9,0-9.7,0-14.6C265.1,269.8,260.4,270.9,255.7,272.3z"/>
	<path class="st6" d="M186.3,303.5c-0.1,1.2-0.3,2.5-0.6,3.7c3.7,0,7.4,0,11.1,0c0.6,0,1-0.1,1-0.8c0-3.1,0-6.2,0-9.3
		C193.9,299.1,190.1,301.2,186.3,303.5z"/>
	<path class="st8" d="M219.6,286c-6,2.8-11.9,5.9-17.8,9c-1,0.5-2,1.1-3.1,1.6c0,3.1,0,6.2,0,9.3c0,1.2,0.4,1.4,1.5,1.4
		c7.2,0,14.4,0,21.6,0c0-7.4,0-14.8,0-22.2C221,285.3,220.3,285.6,219.6,286z"/>
	<path class="st6" d="M244.7,284.1c-7,0-14.1,0-21.1,0c0,0,0,0-0.1,0c-0.3,0.1-0.5,0.2-0.8,0.4c-0.1,0.2-0.1,0.3-0.1,0.6
		c0,6.9,0,13.9,0,20.8c0,1,0.3,1.3,1.3,1.3c6.9,0,13.9,0,20.8,0c0.7,0.1,1-0.2,1-0.9c0-7,0-14.1,0-21.1
		C245.8,284.4,245.5,284.1,244.7,284.1z"/>
	<path class="st6" d="M269.8,307.2c-7.2,0-14.5,0-21.7,0c-1,0-1.4-0.2-1.4-1.3c0.1-6.8,0-13.7,0-20.5c0-1,0.3-1.3,1.3-1.3
		c6.9,0,13.7,0,20.6,0c0.5,0,1.2-0.2,1.2,0.7C269.8,292.3,269.8,299.8,269.8,307.2z"/>
	<path class="st8" d="M210.1,331.2c-3.4,0-6.9,0-10.3,0c-0.8,0-1.1-0.2-1.1-1.1c0-7,0-13.9,0-20.9c0-0.9,0.3-1.1,1.2-1.1
		c6.9,0,13.8,0,20.7,0c0.9,0,1.2,0.2,1.2,1.1c0,6.9,0,13.8,0,20.7c0,1-0.3,1.2-1.2,1.2C217.1,331.2,213.6,331.2,210.1,331.2z"/>
	<path class="st6" d="M245,308.2c0.2,0.3,0.7,0.5,0.7,0.8c0,7.1,0,14.2,0,21.3c0,0.7-0.2,0.9-0.9,0.9c-7.1,0-14.1,0-21.2,0
		c-1,0-0.9-0.6-0.9-1.2c0-7.3,0-14.5,0-21.8C230.2,308.2,237.6,308.2,245,308.2z"/>
	<path class="st6" d="M197,332.2c0.2,0.2,0.5,0.5,0.7,0.7c0,7.4,0,14.9,0,22.3c-0.3,0-0.6,0-1,0c-7.4,0-14.7,0-22.1,0
		c0-7.4,0-14.7,0-22.1c0-0.3,0-0.6,0-1C182.2,332.2,189.6,332.2,197,332.2z"/>
	<path class="st6" d="M195.8,308.9c-3.5,0-7,0-10.5,0c-1.8,6.6-5.4,12.8-10.6,17.1c0,1.7,0,3.4,0,5.2l0,0c7.4,0,14.7,0,22.1,0
		c0.1,0,0.2,0,0.2,0c0-7,0-14,0-21.1C197.1,309.1,196.8,308.9,195.8,308.9z"/>
	<path class="st10" d="M224,307.2c-1,0-1.3-0.3-1.3-1.3c0-6.9,0-13.9,0-20.8c-0.3-0.1-0.5-0.1-0.8-0.2c0,0-0.1,0-0.1,0.1
		c0,7.4,0,14.8,0,22.2c0.3,0.3,0.6,0.6,1,1c7.4,0,14.9,0,22.3,0c-0.1-0.3-0.2-0.6-0.2-1C237.9,307.2,230.9,307.2,224,307.2z"/>
	<path class="st8" d="M197,308.2l-11.5,0c-0.1,0.2-0.1,0.5-0.2,0.7c3.5,0,7,0,10.5,0c1,0,1.3,0.3,1.3,1.3c0,7,0,14,0,21.1
		c0.2-0.3,0.7-0.5,0.7-0.8c0-7.1,0-14.3,0-21.4C197.7,308.7,197.3,308.4,197,308.2z"/>
	<path class="st10" d="M197.8,355.2c0-7.4,0-14.9,0-22.3c0.3,0.1,0.6,0.2,1,0.2c0,7.4,0,14.7,0,22.1l0,0
		C198.4,355.2,198.1,355.2,197.8,355.2z"/>
	<path class="st10" d="M198.7,355.2c7.4,0,14.7,0,22.1,0c0.1,0.3,0.2,0.6,0.2,1c-7.4,0-14.9,0-22.3,0
		C198.7,355.8,198.7,355.5,198.7,355.2L198.7,355.2z"/>
	<path class="st10" d="M174.7,331.2c7.4,0,14.7,0,22.1,0c0.1,0.3,0.2,0.6,0.2,1c-7.4,0-14.9,0-22.3,0
		C174.7,331.8,174.7,331.5,174.7,331.2z"/>
	<path class="st10" d="M185.7,307.2c-0.1,0.3-0.1,0.6-0.2,1l11.5,0c-0.1-0.3-0.2-0.6-0.2-1C193.1,307.2,189.4,307.2,185.7,307.2z"/>
	<path class="st10" d="M269.8,307.2c0-7.4,0-14.9,0-22.3c0.3,0.1,0.6,0.2,1,0.2c0,7.4,0,14.7,0,22.1
		C270.4,307.2,270.1,307.2,269.8,307.2z"/>
	<path class="st10" d="M269.8,268.6c0,4.9,0,9.7,0,14.6c0.3,0,0.6,0,1,0c0-5,0-9.9,0-14.9C270.4,268.4,270.1,268.5,269.8,268.6z"/>
	<path class="st8" d="M269.8,513.7c0,3.4,0,6.9,0,10.3c0,0.8-0.2,1.1-1.1,1.1c-7,0-13.9,0-20.9,0c-0.9,0-1.1-0.3-1.1-1.2
		c0-6.9,0-13.8,0-20.7c0-0.9,0.2-1.2,1.1-1.2c6.9,0,13.8,0,20.7,0c1,0,1.2,0.3,1.2,1.2C269.7,506.8,269.8,510.2,269.8,513.7z"/>
	<path class="st8" d="M245.3,525.1c-7.1,0-14.1,0-21.2,0c-1.1,0-1.4-0.3-1.4-1.4c0-6.8,0-13.6,0-20.4c0-0.4,0.3-0.9,0.5-1.3
		c7.4,0,14.7,0,22.1,0c0.2,0.3,0.5,0.6,0.5,0.9c0,7.1,0,14.1,0,21.2C245.7,524.5,245.4,524.8,245.3,525.1z"/>
	<path class="st8" d="M258.2,501.1c-3.4,0-6.9,0-10.3,0c-0.9,0-1.2-0.2-1.2-1.1c0-7,0-13.9,0-20.9c0-0.9,0.3-1.1,1.1-1.1
		c7,0,13.9,0,20.9,0c0.8,0,1.1,0.2,1.1,1.1c0,7,0,14,0,21c0,0.8-0.3,1-1,1C265.2,501.1,261.7,501.1,258.2,501.1z"/>
	<path class="st8" d="M222.7,501.1c0-7.3,0-14.5,0-21.8c0-0.4,0.3-0.9,0.5-1.3c7.4,0,14.7,0,22.1,0c0.2,0.3,0.5,0.6,0.5,0.9
		c0,7.1,0,14.1,0,21.2c0,0.3-0.3,0.6-0.5,0.9C237.8,501.1,230.2,501.1,222.7,501.1z"/>
	<path class="st8" d="M269.8,465.7c0,3.4,0,6.9,0,10.3c0,0.9-0.2,1.2-1.1,1.2c-7,0-13.9,0-20.9,0c-0.9,0-1.1-0.3-1.1-1.1
		c0-7,0-13.9,0-20.9c0-0.8,0.2-1.1,1.1-1.1c7,0,14,0,21,0c0.8,0,1,0.3,1,1C269.7,458.6,269.8,462.1,269.8,465.7z"/>
	<path class="st8" d="M222.7,477.1c0-7.3,0-14.5,0-21.8c0-0.4,0.3-0.9,0.5-1.3c7.4,0,14.7,0,22.1,0c0.2,0.3,0.5,0.6,0.5,0.9
		c0,7.1,0,14.1,0,21.2c0,0.3-0.3,0.6-0.5,0.9C237.8,477.1,230.2,477.1,222.7,477.1z"/>
	<path class="st8" d="M269,430.1c0.2,0.3,0.7,0.5,0.7,0.8c0,7.1,0,14.2,0,21.4c0,0.7-0.3,0.9-0.9,0.9c-7.1,0-14.2,0-21.2,0
		c-0.7,0-0.9-0.3-0.9-0.9c0-7.1,0-14.2,0-21.4c0-0.3,0.1-0.5,0.2-0.8C254.3,430.1,261.7,430.1,269,430.1z"/>
	<path class="st8" d="M222.7,453.1c0-7.3,0-14.5,0-21.8c0-0.4,0.3-0.9,0.5-1.3c7.4,0,14.7,0,22.1,0c0.2,0.3,0.5,0.6,0.5,0.9
		c0,7.1,0,14.1,0,21.2c0,0.3-0.3,0.6-0.5,0.9C237.8,453.1,230.2,453.1,222.7,453.1z"/>
	<path class="st8" d="M246.7,429.1c0-7.2,0-14.5,0-21.7c0-1,0.2-1.4,1.3-1.4c6.8,0.1,13.7,0,20.5,0c1,0,1.3,0.3,1.3,1.3
		c0,6.9,0,13.7,0,20.6c0,0.4-0.3,0.8-0.5,1.2C261.8,429.1,254.2,429.1,246.7,429.1z"/>
	<path class="st8" d="M222.7,429.1c0-7.3,0-14.5,0-21.8c0-0.4,0.3-0.9,0.5-1.3c7.4,0,14.7,0,22.1,0c0.2,0.3,0.5,0.6,0.5,0.9
		c0,7.1,0,14.1,0,21.2c0,0.3-0.3,0.6-0.5,0.9C237.8,429.1,230.2,429.1,222.7,429.1z"/>
	<path class="st8" d="M258.2,405.1c-3.4,0-6.9,0-10.3,0c-0.9,0-1.2-0.2-1.2-1.1c0-7,0-13.9,0-20.9c0-0.9,0.3-1.1,1.1-1.1
		c7,0,13.9,0,20.9,0c0.8,0,1.1,0.2,1.1,1.1c0,7,0,13.9,0,20.9c0,0.9-0.3,1.1-1.2,1.1C265.1,405.1,261.7,405.1,258.2,405.1z"/>
	<path class="st8" d="M222.7,405.1c0-7.3,0-14.5,0-21.8c0-1,0.3-1.3,1.3-1.3c7.1,0,14.2,0,21.3,0c0.2,0.3,0.5,0.6,0.5,0.9
		c0,7.1,0,14.1,0,21.2c0,0.3-0.3,0.6-0.5,0.9C237.8,405.1,230.2,405.1,222.7,405.1z"/>
	<path class="st11" d="M222.7,477.1c7.5,0,15,0,22.6,0c0,0.3,0,0.6,0,1c-7.4,0-14.7,0-22.1,0C223,477.8,222.9,477.4,222.7,477.1z"/>
	<path class="st11" d="M246.7,429.1c7.5,0,15,0,22.6,0c-0.1,0.3-0.2,0.6-0.2,1c-7.4,0-14.7,0-22.1,0
		C246.9,429.8,246.8,429.4,246.7,429.1z"/>
	<path class="st11" d="M222.7,501.1c7.5,0,15,0,22.6,0c0,0.3,0,0.6,0,1c-7.4,0-14.7,0-22.1,0C223,501.8,222.9,501.4,222.7,501.1z"/>
	<path class="st11" d="M222.7,429.1c7.5,0,15,0,22.6,0c0,0.3,0,0.6,0,1c-7.4,0-14.7,0-22.1,0C223,429.8,222.9,429.4,222.7,429.1z"/>
	<path class="st11" d="M222.7,405.1c7.5,0,15,0,22.6,0c0,0.3,0,0.6,0,1c-7.4,0-14.7,0-22.1,0C223,405.8,222.9,405.4,222.7,405.1z"/>
	<path class="st11" d="M222.7,453.1c7.5,0,15,0,22.6,0c0,0.3,0,0.6,0,1c-7.4,0-14.7,0-22.1,0C223,453.8,222.9,453.4,222.7,453.1z"/>
	<path class="st14" d="M144.7,363.7c-0.5,1.3-0.9,2.6-1.4,3.9c-0.3,0.8-0.7,1.6-1,2.4c0.4,3.2,0.2,6.4-0.9,9.4
		c-0.2,0.6-0.4,1.1-0.6,1.7h9.1v-1.7c0-7.5,0-15,0-22.6c-0.2-0.2-0.3-0.3-0.5-0.5C148.1,359,146.5,361.4,144.7,363.7z"/>
	<path class="st8" d="M137.7,437.4c0,0.8-0.1,1.6-0.2,2.4c2.5,1.5,4.7,3.3,6.6,5.3c2.3,2.3,4,4.9,5.4,7.7c0.2-0.2,0.3-0.5,0.2-1
		c-0.1-6.8-0.1-13.7,0-20.5c0-1.1-0.4-1.3-1.4-1.3c-3.6,0-7.3,0-10.9,0C137.7,432.5,137.8,434.9,137.7,437.4z"/>
	<path class="st8" d="M149.8,407.4c0-1.1-0.4-1.3-1.4-1.3c-4,0-8,0-12,0c-0.1,0.7-0.2,1.5-0.3,2.2c0,0.1,0,0.2,0,0.3
		c0,0.5-0.1,0.9-0.1,1.4c0,1.2,0,2.3,0.1,3.5c0.2,2.9,0.5,5.8,0.7,8.6c0.2,2.4,0.5,4.7,0.7,7.1c3.7,0,7.3,0,11,0
		c1,0,1.4-0.2,1.4-1.3C149.7,421,149.7,414.2,149.8,407.4z"/>
	<path class="st8" d="M149.8,383.4c0-1.1-0.4-1.3-1.4-1.3c-2.7,0-5.4,0-8.1,0c-0.7,1.9-1.4,3.8-2,5.8c-0.5,1.4-0.9,2.9-1.3,4.3
		c0,0.1-0.1,0.3-0.1,0.5c0,0.8-0.1,2-0.1,2.3c0,1.2,0.2,2.3,0.2,3.5c0,2.2-0.2,4.4-0.5,6.7c4,0,7.9,0,11.9,0c1,0,1.4-0.2,1.4-1.3
		C149.7,397,149.7,390.2,149.8,383.4z"/>
	<path class="st8" d="M395.3,356.9c0,7.7,0,15.3,0,23c0,1-0.3,1.3-1.3,1.3c-7.3,0-14.5,0-21.8,0c0-7.9,0-15.9,0-23.8
		c0-0.5-0.2-1.2,0.7-1.2c7.1,0,14.2,0,21.4,0c0.1,0,0.2,0,0.2,0C394.8,356.4,395,356.6,395.3,356.9z"/>
	<path class="st6" d="M419.3,356.9c0,7.6,0,15.3,0,22.9c0,1-0.2,1.4-1.3,1.4c-6.8-0.1-13.7-0.1-20.5,0c-1.1,0-1.3-0.4-1.3-1.4
		c0-7.5,0-15.1,0-22.6c0-0.3,0-0.6,0-1c7.4,0,14.9,0,22.3,0C418.8,356.4,419,356.6,419.3,356.9z"/>
	<path class="st8" d="M394.6,355.2c-7,0-14,0-21,0c-1,0-1.4-0.2-1.4-1.3c0.1-6.8,0-13.7,0-20.5c0-1,0.3-1.3,1.3-1.3
		c6.8,0,13.7,0,20.5,0c1.1,0,1.3,0.4,1.3,1.4c0,7.2,0,14.5,0,21.7C395,355.2,394.8,355.2,394.6,355.2z"/>
	<path class="st6" d="M418.6,355.2c-7,0-14,0-21,0c-1,0-1.4-0.2-1.4-1.3c0.1-6.8,0.1-13.7,0-20.5c0-1.1,0.4-1.3,1.4-1.3
		c7,0,14,0,21,0c0.2,0.3,0.7,0.5,0.7,0.8c0,7.1,0,14.3,0,21.4C419.2,354.7,418.8,354.9,418.6,355.2z"/>
	<path class="st8" d="M383.7,331.2c-3.4,0-6.9,0-10.3,0c-0.9,0-1.2-0.2-1.2-1.1c0-7,0-13.9,0-20.9c0-0.9,0.3-1.1,1.1-1.1
		c7,0,13.9,0,20.9,0c0.8,0,1.1,0.2,1.1,1.1c0,7,0,14,0,21c0,0.8-0.3,1-1,1C390.7,331.2,387.2,331.2,383.7,331.2z"/>
	<path class="st6" d="M418.3,327.6c-2.7-5.5-5.9-10.7-9.2-15.9c-0.8-1.2-1.6-2.4-2.5-3.5c-3,0-6.1,0-9.1,0c-1,0-1.3,0.3-1.3,1.3
		c0,6.8,0,13.7,0,20.5c0,1.1,0.4,1.3,1.4,1.3c7,0,14,0,21,0c0.2,0,0.5,0,0.7,0c0-0.6,0-1.2,0-1.8C419,328.8,418.6,328.2,418.3,327.6
		z"/>
	<path class="st6" d="M397.2,299.8c-0.3-0.1-0.6-0.3-1-0.4c0,2.2,0,4.4,0,6.6c0,0.9,0.3,1.1,1.2,1.1c2.8,0,5.6,0,8.4,0
		C403.2,304.3,400.3,301.9,397.2,299.8z"/>
	<path class="st8" d="M380.1,291.4c-2.4-1.4-2.7-4.3-1.8-6.5c-0.5-0.2-1.1-0.5-1.6-0.7c-1.5,0-2.9,0-4.4,0c0,0.2,0,0.5,0,0.7
		c0,7,0,14,0,21c0,1,0.2,1.4,1.3,1.4c6.8-0.1,13.7,0,20.5,0c1,0,1.3-0.3,1.3-1.3c0-2.3,0-4.6,0-6.9
		C390,296.9,384.9,294.3,380.1,291.4z"/>
	<path class="st5" d="M418.6,331.2c0.2,0,0.5,0,0.7,0c0.3,0,0.6,0,1,0c0,0,0,0,0,0c0,0.3,0,0.6,0,1c0,7.3,0,14.6,0,21.9
		c0,0.7,0,1.3,1,1.2c-0.2,0.3-0.3,0.6-0.5,1c-0.2,0.3-0.3,0.6-0.5,1c-0.3-0.1-0.6-0.2-1-0.2c-0.2-0.2-0.5-0.5-0.7-0.7
		c0-0.3,0-0.6,0-1c0.2-0.3,0.7-0.5,0.7-0.8c0-7.1,0-14.3,0-21.4c0-0.3-0.4-0.5-0.7-0.8C418.6,331.8,418.6,331.5,418.6,331.2z"/>
	<path class="st10" d="M394.3,356.2c-7.1,0-14.2,0-21.4,0c0.3-0.2,0.6-0.5,0.9-0.5c6.4,0,12.9,0,19.3,0
		C393.6,355.7,393.9,356,394.3,356.2z"/>
	<path class="st5" d="M394.6,355.2c0.2,0,0.5,0,0.7,0c0.3,0.3,0.6,0.6,1,1c0,0.3,0,0.6,0,1c-0.3-0.1-0.6-0.2-1-0.2
		c-0.2-0.2-0.5-0.5-0.7-0.7C394.6,355.8,394.6,355.5,394.6,355.2z"/>
	<path class="st4" d="M372.2,382.1c0,0.1,0,0.2,0,0.2c-0.2-0.2-0.3-0.3-0.5-0.5C371.9,381.9,372.1,382,372.2,382.1z"/>
	<path class="st6" d="M444.6,444.9c0.2-0.7,0.4-1.8,0.6-2.8c0-0.3,0-0.6-0.1-0.9c-0.1-1.5-0.4-3-0.4-4.6c0-2.2,0.2-4.4,0.6-6.6
		c-0.3,0-0.7,0-1,0c0,0.4,0,0.8,0,1.2v14.6C444.3,445.6,444.4,445.2,444.6,444.9z"/>
	<path class="st6" d="M449.8,406.8c-0.1-0.2-0.3-0.5-0.4-0.7c-1.7,0-3.5,0-5.2,0c0,0.4,0,0.8,0,1.2v20.9c0,0.3,0,0.6,0,1
		c0.4,0,0.8,0,1.2,0c0.1-0.3,0.1-0.6,0.2-0.9C442.8,420.6,445.1,412.8,449.8,406.8z"/>
	<path class="st6" d="M446.4,396.8c-0.5-0.7-1-1.5-1.5-2.3c-0.3-0.4-0.5-0.9-0.7-1.3v11c0,0.3,0,0.6,0,1c1.6,0,3.1,0,4.7,0
		C447.7,402.5,446.8,399.7,446.4,396.8z"/>
	<path class="st10" d="M448.9,405.1c-1.6,0-3.1,0-4.7,0c0,0.3,0,0.6,0,1c1.7,0,3.5,0,5.2,0C449.3,405.8,449.1,405.4,448.9,405.1z"/>
	<path class="st6" d="M429.8,352.3c-2.4-5.3-3.9-9.4-4.7-14.4c-1.6-1.8-3-3.7-4.2-5.7c-0.2,0-0.4,0-0.6,0c0,7.3,0,14.6,0,21.9
		c0,0.7,0,1.3,1,1.2h10C430.7,354.2,430.3,353.2,429.8,352.3z"/>
	<path class="st6" d="M440.9,375.2c-0.2-0.4-0.5-0.8-0.7-1.2c-3.2-5.7-5.9-11.8-8.6-17.8h-10.9l-0.5,1c0,8,0,16,0,24
		c6.9,0,13.8,0,20.7,0C440.7,379.2,440.7,377.2,440.9,375.2z"/>
	<path class="st6" d="M442.8,452.3c0.1-1.1,0.3-2,0.5-2.9V431c-0.2-0.3-0.3-0.6-0.5-1c-7.5,0-15,0-22.6,0c0,7.7,0,15.4,0,23
		c7.5,0,15,0,22.5,0C442.7,452.9,442.7,452.6,442.8,452.3z"/>
	<path class="st6" d="M420.2,429.1c0-7.7,0-15.4,0-23c7.5,0,15,0,22.6,0c0.2,0.3,0.3,0.6,0.5,1c0,7.2,0,14.4,0,21.6
		c-0.1,0.2-0.2,0.3-0.2,0.5C435.4,429.1,427.8,429.1,420.2,429.1z"/>
	<path class="st6" d="M441,382.1c-6.9,0-13.8,0-20.7,0c0,7.7,0,15.4,0,23c7.6,0,15.2,0,22.8,0l0.2-0.5c0-4.5,0-9,0-13.5
		C442,388.2,441.3,385.2,441,382.1z"/>
	<path class="st6" d="M443.3,463.5v-0.4c-0.7-2.9-0.9-5.9-0.7-9c-7.5,0-14.9,0-22.4,0c0,7.7,0,15.4,0,23c3.5,0,7.1,0,10.6,0
		C434.3,471.9,438.4,467,443.3,463.5z"/>
	<path class="st6" d="M423.8,489.3c1.9-3.7,4-7.5,6.4-11.2c-3.3,0-6.6,0-10,0c0,6.1,0,12.3,0,18.4
		C421.4,494.1,422.6,491.7,423.8,489.3z"/>
	<path class="st6" d="M411.4,506.3c0.9-0.6,1.7-1.2,2.6-1.9c0.5-0.5,1.4-1.4,2.3-2.3c-6.3,0-12.6,0-18.9,0c-0.9,0-1.2,0.4-1.2,1.2
		c0,5.6,0,11.2,0,16.8C400.7,514.8,405.4,510.7,411.4,506.3z"/>
	<path class="st6" d="M407.7,429.1c-3.5,0-7,0-10.4,0c-0.8,0-1.1-0.3-1.1-1.1c0-6.9,0-13.8,0-20.8c0-0.9,0.3-1.2,1.2-1.2
		c6.9,0,13.8,0,20.8,0c0.8,0,1.1,0.3,1.1,1.1c0,7,0,14,0,21c0,0.9-0.4,0.9-1.1,0.9C414.7,429.1,411.2,429.1,407.7,429.1z"/>
	<path class="st6" d="M407.7,453.1c-3.4,0-6.9,0-10.3,0c-0.9,0-1.2-0.2-1.2-1.1c0-6.9,0-13.8,0-20.6c0-1,0.3-1.3,1.3-1.3
		c6.8,0,13.6,0,20.4,0c1.1,0,1.4,0.4,1.4,1.4c0,6.8,0,13.7,0,20.5c0,0.9-0.2,1.2-1.1,1.2C414.7,453.1,411.2,453.1,407.7,453.1z"/>
	<path class="st6" d="M396.2,465.6c0-3.4,0-6.8,0-10.2c0-1,0.3-1.3,1.3-1.3c6.8,0,13.7,0,20.5,0c0.9,0,1.3,0.3,1.3,1.2
		c0,6.9,0,13.8,0,20.8c0,0.9-0.3,1.1-1.1,1.1c-7,0-13.9,0-20.9,0c-0.8,0-1.1-0.3-1.1-1.1C396.3,472.6,396.2,469.1,396.2,465.6z"/>
	<path class="st6" d="M419.3,393.6c0,3.5,0,7,0,10.4c0,0.8-0.2,1.1-1.1,1.1c-7,0-13.9,0-20.9,0c-0.8,0-1.1-0.2-1.1-1.1
		c0-6.9,0-13.8,0-20.8c0-0.9,0.3-1.2,1.3-1.2c6.8,0,13.7,0,20.5,0c1,0,1.3,0.4,1.3,1.3C419.3,386.8,419.3,390.2,419.3,393.6z"/>
	<path class="st6" d="M397.4,501.1c3.5,0,7,0,10.4,0c3.2,0,6.3,0,9.5,0c0.3-0.3,0.6-0.5,0.9-0.8c0-0.1,0.1-0.1,0.1-0.2
		c0.3-0.6,0.7-1.2,1-1.8c0-6.4,0-12.8,0-19.1c0-0.9-0.3-1.2-1.2-1.2c-6.9,0-13.8,0-20.6,0c-1,0-1.2,0.4-1.2,1.3c0,6.9,0,13.8,0,20.6
		C396.2,500.9,396.5,501.2,397.4,501.1z"/>
	<path class="st10" d="M420.2,405.1c7.6,0,15.2,0,22.8,0c-0.1,0.3-0.2,0.6-0.2,1c-7.5,0-15,0-22.6,0
		C420.2,405.8,420.2,405.4,420.2,405.1z"/>
	<path class="st10" d="M442.6,454.1c0-0.3,0.1-0.6,0.1-1c-7.5,0-15,0-22.5,0c0,0.3,0,0.6,0,1C427.7,454.1,435.1,454.1,442.6,454.1z"
		/>
	<path class="st10" d="M420.2,429.1c7.6,0,15.2,0,22.8,0c-0.1,0.3-0.2,0.6-0.2,1c-7.5,0-15,0-22.6,0
		C420.2,429.8,420.2,429.4,420.2,429.1z"/>
	<path class="st10" d="M440.9,381.1c-6.9,0-13.8,0-20.7,0c0,0.3,0,0.6,0,1c6.9,0,13.8,0,20.7,0C441,381.8,440.9,381.4,440.9,381.1z"
		/>
	<path class="st10" d="M430.2,478.1c0.2-0.3,0.4-0.6,0.6-1c-3.5,0-7.1,0-10.6,0c0,0.3,0,0.6,0,1
		C423.6,478.1,426.9,478.1,430.2,478.1z"/>
	<path class="st14" d="M174.7,381.1c0-0.6,0-1.1,0-1.7c0-7.4,0-14.9,0-22.3c0-0.3,0-0.6,0-1c7.4,0,14.9,0,22.3,0
		c0.2,0.2,0.5,0.5,0.7,0.7c0,7.4,0,14.9,0,22.3c0,0.2,0,0.3,0,0.5c0.2,1.1-0.3,1.5-1.4,1.5C189.1,381.1,181.9,381.1,174.7,381.1z"/>
	<path class="st8" d="M174.7,405.1c0-7.7,0-15.4,0-23c7.2,0,14.5,0,21.7,0c1,0,1.4,0.2,1.4,1.3c-0.1,6.8-0.1,13.7,0,20.5
		c0,1.1-0.4,1.3-1.4,1.3C189.2,405.1,182,405.1,174.7,405.1z"/>
	<path class="st8" d="M210.2,502.1c3.5,0,7,0,10.4,0c0.8,0,1.1,0.2,1.1,1.1c0,7,0,14,0,21c0,0.8-0.3,1-1,1c-7,0-14,0-21,0
		c-0.9,0-1.1-0.3-1-1.1c0-7,0-13.9,0-20.9c0-0.8,0.3-1.1,1.1-1.1C203.3,502.1,206.8,502.1,210.2,502.1z"/>
	<path class="st8" d="M175.7,520c2.2,1.6,4.4,3.3,6.4,5.2c4.8,0,9.6,0,14.4,0c1,0,1.4-0.2,1.4-1.3c-0.1-6.8-0.1-13.7,0-20.5
		c0-1.1-0.4-1.3-1.4-1.3c-7.2,0-14.5,0-21.7,0c0,5.7,0,11.5,0,17.2C175,519.5,175.4,519.7,175.7,520z"/>
	<path class="st8" d="M221.8,489.6c0,3.4,0,6.9,0,10.3c0,0.9-0.2,1.3-1.2,1.2c-6.9,0-13.8,0-20.7,0c-0.9,0-1.2-0.3-1.2-1.2
		c0-6.9,0-13.8,0-20.7c0-1,0.4-1.2,1.2-1.2c6.9,0,13.7,0,20.6,0c1,0,1.2,0.3,1.2,1.2C221.7,482.7,221.8,486.1,221.8,489.6z"/>
	<path class="st8" d="M174.7,501.1c0-7.7,0-15.4,0-23c7.2,0,14.5,0,21.7,0c1,0,1.4,0.2,1.4,1.3c-0.1,6.8-0.1,13.7,0,20.5
		c0,1.1-0.4,1.3-1.4,1.3C189.2,501.1,182,501.1,174.7,501.1z"/>
	<path class="st8" d="M210.1,477.1c-3.4,0-6.9,0-10.3,0c-0.8,0-1.1-0.2-1.1-1.1c0-7,0-13.9,0-20.9c0-0.9,0.3-1.1,1.2-1.1
		c6.9,0,13.8,0,20.7,0c0.9,0,1.2,0.2,1.2,1.1c0,6.9,0,13.8,0,20.7c0,1-0.3,1.2-1.2,1.2C217.1,477.1,213.6,477.1,210.1,477.1z"/>
	<path class="st8" d="M174.7,477.1c0-7.7,0-15.4,0-23c7.2,0,14.5,0,21.7,0c1,0,1.4,0.2,1.4,1.3c-0.1,6.8-0.1,13.7,0,20.5
		c0,1.1-0.4,1.3-1.4,1.3C189.2,477.1,182,477.1,174.7,477.1z"/>
	<path class="st8" d="M198.7,441.6c0-3.5,0-7,0-10.4c0-0.8,0.2-1.1,1.1-1.1c7,0,14,0,21,0c0.8,0,1,0.3,1,1c0,7,0,14,0,21
		c0,0.9-0.3,1.1-1.1,1c-7,0-13.9,0-20.9,0c-0.9,0-1.1-0.3-1.1-1.1C198.7,448.6,198.7,445.1,198.7,441.6z"/>
	<path class="st8" d="M174.7,453.1c0-7.7,0-15.4,0-23c7.2,0,14.5,0,21.7,0c1,0,1.4,0.2,1.4,1.3c-0.1,6.8-0.1,13.7,0,20.5
		c0,1.1-0.4,1.3-1.4,1.3C189.2,453.1,182,453.1,174.7,453.1z"/>
	<path class="st8" d="M220.8,406.1c0.7-0.1,1,0.2,1,0.9c0,7,0,14.1,0,21.1c0,0.8-0.3,1-1,1c-7,0-14,0-21,0c-0.8,0-1-0.2-1-1
		c0-7,0-14.1,0-21.1c0-0.3,0.3-0.6,0.5-0.9C206.4,406.1,213.6,406.1,220.8,406.1z"/>
	<path class="st8" d="M174.7,429.1c0-7.7,0-15.4,0-23c7.2,0,14.5,0,21.7,0c1,0,1.4,0.2,1.4,1.3c-0.1,6.8-0.1,13.7,0,20.5
		c0,1.1-0.4,1.3-1.4,1.3C189.2,429.1,182,429.1,174.7,429.1z"/>
	<path class="st8" d="M198.7,405.1c0-7.2,0-14.5,0-21.7c0-1,0.2-1.4,1.3-1.4c6.8,0.1,13.7,0,20.5,0c1,0,1.3,0.3,1.3,1.3
		c0,6.9,0,13.7,0,20.6c0,0.4-0.3,0.8-0.5,1.2C213.8,405.1,206.2,405.1,198.7,405.1z"/>
	<path class="st10" d="M197.8,379.2c0-7.4,0-14.9,0-22.3c0.3,0.1,0.6,0.2,1,0.2c0,7.4,0,14.7,0,22.1
		C198.4,379.2,198.1,379.2,197.8,379.2z"/>
	<path class="st11" d="M198.7,405.1c7.5,0,15,0,22.6,0c-0.2,0.3-0.3,0.6-0.5,1c-7.2,0-14.4,0-21.6,0
		C199,405.8,198.9,405.4,198.7,405.1z"/>
	<path class="st14" d="M173.8,379.4c-0.1,0.6-0.2,1.1-0.2,1.7c-7.5,0-15,0-22.7,0c0-0.6-0.1-1.1-0.1-1.7c0-7.4,0-14.9,0-22.3
		c0-0.3,0-0.6,0-1c7.4,0,14.9,0,22.3,0c0.2,0.2,0.5,0.5,0.7,0.7C173.8,364.4,173.8,371.9,173.8,379.4z"/>
	<path class="st8" d="M173.3,382.1c0.2,0.3,0.5,0.6,0.5,0.9c0,7.1,0,14.2,0,21.2c0,0.3-0.1,0.6-0.2,0.9c-7.1,0-14.3,0-21.4,0
		c-1,0-1.4-0.2-1.4-1.3c0.1-6.8,0.1-13.7,0-20.5c0-1.1,0.4-1.3,1.4-1.3C159.1,382.1,166.2,382.1,173.3,382.1z"/>
	<path class="st8" d="M166.2,505.1c0.8,1.7,1.6,3.5,2.4,5.3c2.8,6.6,3.4,8.1,1.9,4.5c-0.2-0.5-0.4-1-0.6-1.5
		c0.5,0.7,0.9,1.9,1.3,2.7c0.2,0.2,0.7,1,1.1,1.6c0.5,0.3,1,0.7,1.5,1c0-5.2,0-10.4,0-15.6c0-0.3-0.3-0.6-0.5-0.9
		c-2.9,0-5.7,0-8.6,0C165.2,503.1,165.7,504.1,166.2,505.1z"/>
	<path class="st8" d="M156.7,481c0.6,2.9,1.3,5.8,2.1,8.6c0.1,0.4,0.7,1.9,1,2.8c1.6,2.9,3,5.8,4.4,8.8c3.1,0,6.2,0,9.3,0
		c0.1-0.3,0.2-0.6,0.2-0.9c0-7.1,0-14.2,0-21.2c0-0.3-0.3-0.6-0.5-0.9c-5.7,0-11.4,0-17.2,0C156.3,479.1,156.5,480,156.7,481z"/>
	<path class="st8" d="M155.9,477.1c5.9,0,11.7,0,17.6,0c0.1-0.3,0.2-0.6,0.2-0.9c0-7.1,0-14.2,0-21.2c0-0.3-0.3-0.6-0.5-0.9
		c-7.1,0-14.1,0-21.2,0c-1,0-1.4,0.2-1.4,1.3c0,0,0,0,0,0C153.5,462.2,154.6,469.9,155.9,477.1z"/>
	<path class="st8" d="M173.3,430.1c0.2,0.3,0.5,0.6,0.5,0.9c0,7.1,0,14.2,0,21.2c0,0.3-0.1,0.6-0.2,0.9c-7.1,0-14.3,0-21.4,0
		c-1,0-1.4-0.2-1.4-1.3c0.1-6.8,0.1-13.7,0-20.5c0-1.1,0.4-1.3,1.4-1.3C159.1,430.1,166.2,430.1,173.3,430.1z"/>
	<path class="st8" d="M173.3,406.1c0.2,0.3,0.5,0.6,0.5,0.9c0,7.1,0,14.2,0,21.2c0,0.3-0.1,0.6-0.2,0.9c-7.1,0-14.3,0-21.4,0
		c-1,0-1.4-0.2-1.4-1.3c0.1-6.8,0.1-13.7,0-20.5c0-1.1,0.4-1.3,1.4-1.3C159.1,406.1,166.2,406.1,173.3,406.1z"/>
	<path class="st10" d="M150.7,357.1c0,7.4,0,14.9,0,22.3c-0.3,0-0.6,0-1,0c0-7.5,0-15,0-22.6C150.1,357,150.4,357,150.7,357.1z"/>
	<path class="st10" d="M173.8,379.4c0-7.5,0-15,0-22.6c0.3,0.1,0.6,0.2,1,0.2c0,7.4,0,14.9,0,22.3
		C174.4,379.4,174.1,379.4,173.8,379.4z"/>
	<path class="st5" d="M198.7,357.1c-0.3-0.1-0.6-0.2-1-0.2c-0.2-0.2-0.5-0.5-0.7-0.7c-0.1-0.3-0.2-0.6-0.2-1c0.3,0,0.6,0,1,0
		c0.3,0,0.6,0,1,0c0,0.3,0,0.6,0,1C198.7,356.5,198.7,356.8,198.7,357.1z"/>
	<path class="st10" d="M196.8,355.2c0.1,0.3,0.2,0.6,0.2,1c-7.4,0-14.9,0-22.3,0c0-0.3,0-0.6,0-1l0,0
		C182.1,355.2,189.4,355.2,196.8,355.2z"/>
	<path class="st10" d="M174.7,333.1c0,7.4,0,14.7,0,22.1c0,0,0,0,0,0c-0.3,0-0.6,0-1,0c0-7.4,0-14.9,0-22.3
		C174.1,333,174.4,333,174.7,333.1z"/>
	<path class="st5" d="M174.7,333.1c-0.3-0.1-0.6-0.2-1-0.2c-0.2-0.2-0.5-0.5-0.7-0.7c-0.1-0.3-0.2-0.6-0.2-1c0.3,0,0.6,0,1,0
		c0.3,0,0.6,0,1,0c0,0,0,0,0,0c0,0.3,0,0.6,0,1C174.7,332.5,174.7,332.8,174.7,333.1z"/>
	<path class="st10" d="M173.8,326.8c0,1.5,0,2.9,0,4.4h1c0-1.7,0-3.4,0-5.2C174.4,326.3,174.1,326.6,173.8,326.8z"/>
	<path class="st10" d="M431.2,355.2h-10c-0.2,0.3-0.3,0.6-0.5,1h10.9C431.5,355.8,431.3,355.5,431.2,355.2z"/>
	<path class="st10" d="M444.2,445.9v-14.6c-0.3-0.1-0.6-0.2-1-0.2v18.4C443.5,448.2,443.8,447.1,444.2,445.9z"/>
	<path class="st5" d="M444.2,431.3c-0.3-0.1-0.6-0.2-1-0.2c-0.2-0.3-0.3-0.6-0.5-1c0.1-0.3,0.2-0.6,0.2-1c0.1-0.2,0.2-0.3,0.2-0.5
		c0.3-0.2,0.6-0.3,1-0.5c0,0.3,0,0.6,0,1c0,0.3,0,0.6,0,1C444.2,430.5,444.2,430.9,444.2,431.3z"/>
	<path class="st10" d="M444.2,428.2c-0.3,0.2-0.6,0.3-1,0.5c0-7.2,0-14.4,0-21.6c0.3,0.1,0.6,0.2,1,0.2
		C444.2,414.2,444.2,421.2,444.2,428.2z"/>
	<path class="st5" d="M444.2,407.3c-0.3-0.1-0.6-0.2-1-0.2c-0.2-0.3-0.3-0.6-0.5-1c0.1-0.3,0.2-0.6,0.2-1c0.1-0.2,0.2-0.3,0.2-0.5
		c0.3-0.2,0.6-0.3,1-0.5c0,0.3,0,0.6,0,1c0,0.3,0,0.6,0,1C444.2,406.5,444.2,406.9,444.2,407.3z"/>
	<path class="st10" d="M443.3,391.2c0,4.5,0,9,0,13.5c0.3-0.2,0.6-0.3,1-0.5v-11C443.9,392.5,443.6,391.8,443.3,391.2z"/>
	<path class="st5" d="M173.8,355.2c0.3,0,0.6,0,1,0c0,0.3,0,0.6,0,1c0,0.3,0,0.6,0,1c-0.3-0.1-0.6-0.2-1-0.2
		c-0.2-0.2-0.5-0.5-0.7-0.7c-0.1-0.3-0.2-0.6-0.2-1C173.1,355.2,173.4,355.2,173.8,355.2z"/>
	<path class="st10" d="M172.8,355.2c0.1,0.3,0.2,0.6,0.2,1c-7.4,0-14.9,0-22.3,0c0-0.3,0-0.6,0-1
		C158.1,355.2,165.4,355.2,172.8,355.2z"/>
	<path class="st6" d="M173,332.2c-3.6,0-7.1,0-10.7,0c-0.9,7.5-4.9,14.8-11.2,18.6c-0.1,0.6-0.2,1.1-0.4,1.6c0,0.9,0,1.8,0,2.8
		c0,0,0,0,0,0c7.4,0,14.7,0,22.1,0c0.3,0,0.6,0,1,0c0-7.4,0-14.9,0-22.3C173.5,332.6,173.3,332.4,173,332.2z"/>
	<path class="st6" d="M165.4,331c-0.3,0.1-0.6,0.2-1,0.2l8.4,0l1,0c0-1.5,0-2.9,0-4.4C171.3,328.7,168.5,330.1,165.4,331z"/>
	<path class="st10" d="M162.3,332.2c3.6,0,7.1,0,10.7,0c-0.1-0.3-0.2-0.6-0.2-1c-2.8,0-5.6,0-8.4,0c-0.7,0.2-1.4,0.3-2,0.4
		C162.4,331.8,162.3,332,162.3,332.2z"/>
</g>
<rect x="284" y="289.5" class="st15" width="1.2" height="263"/>
<rect x="281.4" y="289.5" class="st15" width="1.2" height="263"/>
<g class="st16">
	<rect x="297" y="287.8" class="st17" width="1.2" height="263"/>
	<rect x="294.4" y="287.7" class="st17" width="1.2" height="263"/>
	<rect x="291.5" y="285.6" class="st17" width="1.2" height="263"/>
	<rect x="288.9" y="284.9" class="st17" width="1.2" height="263"/>
	<rect x="286.3" y="287.2" class="st17" width="1.2" height="263"/>
	<rect x="278.5" y="287" class="st17" width="1.2" height="263"/>
	<rect x="275.8" y="286.3" class="st17" width="1.2" height="263"/>
	<rect x="273.3" y="288.6" class="st17" width="1.2" height="263"/>
	<rect x="270.9" y="291.5" class="st17" width="1.2" height="263"/>
	<rect x="268.1" y="290.3" class="st17" width="1.2" height="263"/>
	<rect x="265.4" y="289.3" class="st17" width="1.2" height="263"/>
	<rect x="262.7" y="288.6" class="st17" width="1.2" height="263"/>
	<rect x="260.2" y="290.9" class="st17" width="1.2" height="263"/>
	<rect x="257.8" y="292" class="st17" width="1.2" height="263"/>
	<rect x="255.1" y="292" class="st17" width="1.2" height="263"/>
	<rect x="252.3" y="289.9" class="st17" width="1.2" height="263"/>
	<rect x="249.6" y="289.2" class="st17" width="1.2" height="263"/>
	<rect x="247.1" y="291.5" class="st17" width="1.2" height="263"/>
	<rect x="245.1" y="297.7" class="st17" width="1.2" height="263"/>
	<rect x="242.5" y="297.7" class="st17" width="1.2" height="263"/>
	<rect x="239.6" y="295.6" class="st17" width="1.2" height="263"/>
	<rect x="237" y="294.9" class="st17" width="1.2" height="263"/>
	<rect x="234.5" y="297.2" class="st17" width="1.2" height="263"/>
	<rect x="231.8" y="303.6" class="st17" width="1.2" height="259.3"/>
	<rect x="229.2" y="303.6" class="st17" width="1.2" height="258.3"/>
	<rect x="226.4" y="301.5" class="st17" width="1.2" height="258.7"/>
	<rect x="223.7" y="300.8" class="st17" width="1.2" height="258.7"/>
	<rect x="221.2" y="303.1" class="st17" width="1.2" height="254.8"/>
	<rect x="218.9" y="308.4" class="st17" width="1.2" height="248.4"/>
	<rect x="216.3" y="308.3" class="st17" width="1.2" height="247.6"/>
	<rect x="213.4" y="306.2" class="st17" width="1.2" height="247.4"/>
	<rect x="210.7" y="305.5" class="st17" width="1.2" height="247.4"/>
	<rect x="208.2" y="307.8" class="st17" width="1.2" height="242.9"/>
	<rect x="205.8" y="316.6" class="st17" width="1.2" height="233.2"/>
	<rect x="203.2" y="316.5" class="st17" width="1.2" height="231.4"/>
	<rect x="200.3" y="314.4" class="st17" width="1.2" height="230.2"/>
	<rect x="197.6" y="313.7" class="st17" width="1.2" height="229.8"/>
	<rect x="195.1" y="316" class="st17" width="1.2" height="224.4"/>
	<rect x="192.6" y="333.7" class="st17" width="1.2" height="203.8"/>
	<rect x="190" y="333.6" class="st17" width="1.2" height="203.9"/>
	<rect x="187.1" y="331.5" class="st17" width="1.2" height="203.6"/>
	<rect x="184.4" y="330.8" class="st17" width="1.2" height="200"/>
	<rect x="181.9" y="333.1" class="st17" width="1.2" height="196.5"/>
	<rect x="179.3" y="309.3" class="st17" width="1.2" height="217.1"/>
	<rect x="176.7" y="315.7" class="st17" width="1.2" height="207.7"/>
	<rect x="173.8" y="317.3" class="st17" width="1.2" height="203.7"/>
	<rect x="171.1" y="326.4" class="st17" width="1.2" height="192.3"/>
	<rect x="168.6" y="321.4" class="st17" width="1.2" height="192.9"/>
	<rect x="166.7" y="326" class="st17" width="1.2" height="187.1"/>
	<rect x="164.1" y="329.3" class="st17" width="1.2" height="179.1"/>
	<rect x="161.2" y="330.1" class="st17" width="1.2" height="174.9"/>
	<rect x="158.5" y="334.4" class="st17" width="1.2" height="166.2"/>
	
		<rect x="155.8" y="337.9" transform="matrix(1 4.847095e-03 -4.847095e-03 1 2.0231 -0.7534)" class="st17" width="1.3" height="158.2"/>
</g>
<g class="st16">
	
		<rect x="302.5" y="286.2" transform="matrix(-1 4.567135e-11 -4.567135e-11 -1 606.262 835.3484)" class="st17" width="1.2" height="263"/>
	
		<rect x="305.1" y="286.2" transform="matrix(-1 4.567135e-11 -4.567135e-11 -1 611.491 835.4295)" class="st17" width="1.2" height="263"/>
	
		<rect x="308" y="288.3" transform="matrix(-1 4.567135e-11 -4.567135e-11 -1 617.1888 839.6572)" class="st17" width="1.2" height="263"/>
	
		<rect x="310.7" y="289" transform="matrix(-1 4.567135e-11 -4.567135e-11 -1 622.5413 841.0625)" class="st17" width="1.2" height="263"/>
	
		<rect x="313.2" y="286.7" transform="matrix(-1 4.567135e-11 -4.567135e-11 -1 627.5761 836.4561)" class="st17" width="1.2" height="263"/>
	
		<rect x="321" y="286.9" transform="matrix(-1 4.567135e-11 -4.567135e-11 -1 643.2595 836.8001)" class="st17" width="1.2" height="263"/>
	
		<rect x="323.7" y="287.6" transform="matrix(-1 4.567135e-11 -4.567135e-11 -1 648.612 838.2054)" class="st17" width="1.2" height="263"/>
	
		<rect x="326.2" y="285.3" transform="matrix(-1 4.567135e-11 -4.567135e-11 -1 653.6468 833.599)" class="st17" width="1.2" height="263"/>
	
		<rect x="328.7" y="282.5" transform="matrix(-1 4.567135e-11 -4.567135e-11 -1 658.5154 827.8849)" class="st17" width="1.2" height="263"/>
	
		<rect x="331.4" y="283.7" transform="matrix(-1 4.567135e-11 -4.567135e-11 -1 663.9789 830.3619)" class="st17" width="1.2" height="263"/>
	
		<rect x="334.1" y="284.6" transform="matrix(-1 4.262667e-11 -4.262667e-11 -1 669.4423 832.1937)" class="st17" width="1.2" height="263"/>
	
		<rect x="336.8" y="285.3" transform="matrix(-1 4.567135e-11 -4.567135e-11 -1 674.7948 833.599)" class="st17" width="1.2" height="263"/>
	
		<rect x="339.3" y="283" transform="matrix(-1 4.567135e-11 -4.567135e-11 -1 679.8297 828.9926)" class="st17" width="1.2" height="263"/>
	
		<rect x="341.8" y="281.9" transform="matrix(-1 4.567135e-11 -4.567135e-11 -1 684.7678 826.7773)" class="st17" width="1.2" height="263"/>
	
		<rect x="344.4" y="281.9" transform="matrix(-1 4.262667e-11 -4.262667e-11 -1 689.9968 826.8584)" class="st17" width="1.2" height="263"/>
	
		<rect x="347.2" y="284.1" transform="matrix(-1 4.262667e-11 -4.262667e-11 -1 695.6946 831.0861)" class="st17" width="1.2" height="263"/>
	
		<rect x="349.9" y="284.8" transform="matrix(-1 4.262667e-11 -4.262667e-11 -1 701.0472 832.4914)" class="st17" width="1.2" height="263"/>
	
		<rect x="352.4" y="282.5" transform="matrix(-1 4.567135e-11 -4.567135e-11 -1 706.082 827.8849)" class="st17" width="1.2" height="263"/>
	
		<rect x="354.4" y="276.2" transform="matrix(-1 4.567135e-11 -4.567135e-11 -1 710.0455 815.3751)" class="st17" width="1.2" height="263"/>
	
		<rect x="357" y="276.2" transform="matrix(-1 4.262667e-11 -4.262667e-11 -1 715.2745 815.4561)" class="st17" width="1.2" height="263"/>
	
		<rect x="359.9" y="278.4" transform="matrix(-1 4.262667e-11 -4.262667e-11 -1 720.9723 819.6838)" class="st17" width="1.2" height="263"/>
	
		<rect x="362.6" y="279.1" transform="matrix(-1 4.262667e-11 -4.262667e-11 -1 726.3248 821.0891)" class="st17" width="1.2" height="263"/>
	
		<rect x="365.1" y="278.7" transform="matrix(-1 4.491018e-11 -4.491018e-11 -1 731.3596 818.4501)" class="st17" width="1.2" height="261"/>
	
		<rect x="367.7" y="280.6" transform="matrix(-1 4.491018e-11 -4.491018e-11 -1 736.5801 813.9131)" class="st17" width="1.2" height="252.7"/>
	
		<rect x="370.3" y="282.5" transform="matrix(-1 4.414901e-11 -4.414901e-11 -1 741.8091 815.788)" class="st17" width="1.2" height="250.9"/>
	
		<rect x="373.2" y="283.7" transform="matrix(-1 4.414901e-11 -4.414901e-11 -1 747.507 819.1403)" class="st17" width="1.2" height="251.8"/>
	
		<rect x="375.8" y="284.9" transform="matrix(-1 4.414901e-11 -4.414901e-11 -1 752.8595 821.0516)" class="st17" width="1.2" height="251.3"/>
	
		<rect x="378.3" y="286.2" transform="matrix(-1 4.110433e-11 -4.110433e-11 -1 757.8943 820.033)" class="st17" width="1.2" height="247.7"/>
	
		<rect x="380.7" y="287.8" transform="matrix(-1 4.414901e-11 -4.414901e-11 -1 762.5334 816.3234)" class="st17" width="1.2" height="240.8"/>
	
		<rect x="383.3" y="289.5" transform="matrix(-1 4.414901e-11 -4.414901e-11 -1 767.7625 818.1028)" class="st17" width="1.2" height="239.1"/>
	
		<rect x="386.1" y="293.9" transform="matrix(-1 4.034316e-11 -4.034316e-11 -1 773.4603 824.6342)" class="st17" width="1.2" height="236.8"/>
	
		<rect x="388.8" y="295.2" transform="matrix(-1 4.034316e-11 -4.034316e-11 -1 778.8128 826.6318)" class="st17" width="1.2" height="236.2"/>
	
		<rect x="391.3" y="296.2" transform="matrix(-1 4.110433e-11 -4.110433e-11 -1 783.8477 825.2782)" class="st17" width="1.2" height="233"/>
	
		<rect x="393.8" y="299.6" transform="matrix(-1 4.110433e-11 -4.110433e-11 -1 788.7025 819.9683)" class="st17" width="1.2" height="220.7"/>
	
		<rect x="396.4" y="303.8" transform="matrix(-1 4.262667e-11 -4.262667e-11 -1 793.9315 824.1527)" class="st17" width="1.2" height="216.6"/>
	
		<rect x="399.2" y="304.1" transform="matrix(-1 4.338784e-11 -4.338784e-11 -1 799.6293 826.6118)" class="st17" width="1.2" height="218.4"/>
	
		<rect x="401.9" y="305.5" transform="matrix(-1 4.338784e-11 -4.338784e-11 -1 804.9819 828.6958)" class="st17" width="1.2" height="217.7"/>
	
		<rect x="404.4" y="308.2" transform="matrix(-1 4.338784e-11 -4.338784e-11 -1 810.0167 829.1552)" class="st17" width="1.2" height="212.7"/>
	
		<rect x="407" y="311.9" transform="matrix(-1 4.034316e-11 -4.034316e-11 -1 815.1198 815.1337)" class="st17" width="1.2" height="191.4"/>
	
		<rect x="409.6" y="314.7" transform="matrix(-1 4.186550e-11 -4.186550e-11 -1 820.3488 818.0232)" class="st17" width="1.2" height="188.6"/>
	
		<rect x="412.4" y="317.6" transform="matrix(-1 4.262667e-11 -4.262667e-11 -1 826.0466 822.986)" class="st17" width="1.2" height="187.8"/>
	
		<rect x="415.1" y="321.5" transform="matrix(-1 4.186550e-11 -4.186550e-11 -1 831.3992 827.6598)" class="st17" width="1.2" height="184.6"/>
	
		<rect x="417.6" y="325.4" transform="matrix(-1 4.110433e-11 -4.110433e-11 -1 836.434 829.2415)" class="st17" width="1.2" height="178.4"/>
	
		<rect x="419.9" y="328.4" transform="matrix(-1 2.692234e-11 -2.692234e-11 -1 841.3381 835.9424)" class="st17" width="1.6" height="179.1"/>
	
		<rect x="318.7" y="286.3" transform="matrix(-1 4.567135e-11 -4.567135e-11 -1 638.6331 835.6362)" class="st17" width="1.2" height="263"/>
	
		<rect x="316" y="288.3" transform="matrix(-1 4.567135e-11 -4.567135e-11 -1 633.1035 839.6572)" class="st17" width="1.2" height="263"/>
</g>
<g class="st16">
	
		<rect x="293" y="277.7" transform="matrix(7.609852e-13 1 -1 7.609852e-13 702.8451 115.5949)" class="st17" width="1.2" height="263"/>
	
		<rect x="293.1" y="275.1" transform="matrix(7.609852e-13 1 -1 7.609852e-13 700.2711 112.9399)" class="st17" width="1.2" height="263"/>
	
		<rect x="295.2" y="272.3" transform="matrix(7.609852e-13 1 -1 7.609852e-13 699.5361 107.9771)" class="st17" width="1.2" height="263"/>
	
		<rect x="295.9" y="269.6" transform="matrix(7.609852e-13 1 -1 7.609852e-13 697.5624 104.5982)" class="st17" width="1.2" height="263"/>
	
		<rect x="293.6" y="267.1" transform="matrix(7.609852e-13 1 -1 7.609852e-13 692.7418 104.384)" class="st17" width="1.2" height="263"/>
	
		<rect x="293.8" y="259.2" transform="matrix(7.609852e-13 1 -1 7.609852e-13 685.0722 96.3703)" class="st17" width="1.2" height="263"/>
	
		<rect x="294.5" y="256.6" transform="matrix(7.609852e-13 1 -1 7.609852e-13 683.0986 92.9914)" class="st17" width="1.2" height="263"/>
	
		<rect x="292.2" y="254" transform="matrix(7.609852e-13 1 -1 7.609852e-13 678.278 92.7772)" class="st17" width="1.2" height="263"/>
	
		<rect x="289.3" y="251.6" transform="matrix(7.609852e-13 1 -1 7.609852e-13 672.9866 93.1999)" class="st17" width="1.2" height="263"/>
	
		<rect x="290.5" y="248.9" transform="matrix(7.609852e-13 1 -1 7.609852e-13 671.4934 89.2297)" class="st17" width="1.2" height="263"/>
	
		<rect x="291.5" y="246.1" transform="matrix(-2.283690e-12 1 -1 -2.283690e-12 669.6776 85.5821)" class="st17" width="1.2" height="263"/>
	
		<rect x="292.2" y="243.5" transform="matrix(7.609852e-13 1 -1 7.609852e-13 667.704 82.2032)" class="st17" width="1.2" height="263"/>
	
		<rect x="289.8" y="240.9" transform="matrix(7.609852e-13 1 -1 7.609852e-13 662.8834 81.989)" class="st17" width="1.2" height="263"/>
	
		<rect x="288.7" y="238.5" transform="matrix(7.609852e-13 1 -1 7.609852e-13 659.3066 80.6275)" class="st17" width="1.2" height="263"/>
	
		<rect x="288.8" y="235.9" transform="matrix(-2.283690e-12 1 -1 -2.283690e-12 656.7327 77.9725)" class="st17" width="1.2" height="263"/>
	
		<rect x="290.9" y="233" transform="matrix(-2.283690e-12 1 -1 -2.283690e-12 655.9976 73.0098)" class="st17" width="1.2" height="263"/>
	
		<rect x="291.6" y="230.3" transform="matrix(-2.283690e-12 1 -1 -2.283690e-12 654.024 69.6308)" class="st17" width="1.2" height="263"/>
	
		<rect x="289.3" y="227.8" transform="matrix(7.609852e-13 1 -1 7.609852e-13 649.2034 69.4167)" class="st17" width="1.2" height="263"/>
	
		<rect x="283" y="225.8" transform="matrix(7.609852e-13 1 -1 7.609852e-13 640.9667 73.6898)" class="st17" width="1.2" height="263"/>
	
		<rect x="283.1" y="223.2" transform="matrix(-2.283690e-12 1 -1 -2.283690e-12 638.3927 71.0348)" class="st17" width="1.2" height="263"/>
	
		<rect x="285.2" y="220.4" transform="matrix(-2.283690e-12 1 -1 -2.283690e-12 637.6577 66.0721)" class="st17" width="1.2" height="263"/>
	
		<rect x="285.9" y="217.7" transform="matrix(-2.283690e-12 1 -1 -2.283690e-12 635.684 62.6931)" class="st17" width="1.2" height="263"/>
	
		<rect x="284.6" y="216.2" transform="matrix(-1.836970e-16 1 -1 -1.836970e-16 631.8471 61.4952)" class="st17" width="1.2" height="261"/>
	
		<rect x="282.3" y="217.7" transform="matrix(-1.836970e-16 1 -1 -1.836970e-16 626.9683 61.1535)" class="st17" width="1.2" height="252.7"/>
	
		<rect x="283.2" y="216" transform="matrix(-7.613526e-13 1 -1 -7.613526e-13 625.2913 57.6015)" class="st17" width="1.2" height="250.9"/>
	
		<rect x="284.9" y="212.7" transform="matrix(-7.613526e-13 1 -1 -7.613526e-13 624.1185 53.0764)" class="st17" width="1.2" height="251.8"/>
	
		<rect x="285.9" y="210.3" transform="matrix(-7.613526e-13 1 -1 -7.613526e-13 622.3979 49.4445)" class="st17" width="1.2" height="251.3"/>
	
		<rect x="285.4" y="209.6" transform="matrix(-3.806028e-12 1 -1 -3.806028e-12 619.3712 47.4364)" class="st17" width="1.2" height="247.7"/>
	
		<rect x="283.5" y="210.7" transform="matrix(-7.613526e-13 1 -1 -7.613526e-13 615.1968 46.9717)" class="st17" width="1.2" height="240.8"/>
	
		<rect x="284.4" y="208.9" transform="matrix(-7.613526e-13 1 -1 -7.613526e-13 613.472 43.4675)" class="st17" width="1.2" height="239.1"/>
	
		<rect x="287.7" y="207.2" transform="matrix(-4.567197e-12 1 -1 -4.567197e-12 613.8888 37.3529)" class="st17" width="1.2" height="236.8"/>
	
		<rect x="288.7" y="204.8" transform="matrix(-4.567197e-12 1 -1 -4.567197e-12 612.2114 33.6778)" class="st17" width="1.2" height="236.2"/>
	
		<rect x="288" y="203.9" transform="matrix(-3.806028e-12 1 -1 -3.806028e-12 609.0172 31.8372)" class="st17" width="1.2" height="233"/>
	
		<rect x="285.3" y="207.6" transform="matrix(-3.806028e-12 1 -1 -3.806028e-12 603.9348 32.0647)" class="st17" width="1.2" height="220.7"/>
	
		<rect x="287.4" y="207.1" transform="matrix(-2.283690e-12 1 -1 -2.283690e-12 603.4125 27.358)" class="st17" width="1.2" height="216.6"/>
	
		<rect x="288.7" y="203.3" transform="matrix(-1.522521e-12 1 -1 -1.522521e-12 601.7931 23.2795)" class="st17" width="1.2" height="218.4"/>
	
		<rect x="289.7" y="201" transform="matrix(-1.522521e-12 1 -1 -1.522521e-12 600.1588 19.5613)" class="st17" width="1.2" height="217.7"/>
	
		<rect x="289.9" y="201" transform="matrix(-1.522521e-12 1 -1 -1.522521e-12 597.8711 16.8142)" class="st17" width="1.2" height="212.7"/>
	
		<rect x="282.9" y="209.1" transform="matrix(-4.567197e-12 1 -1 -4.567197e-12 588.3088 21.2734)" class="st17" width="1.2" height="191.4"/>
	
		<rect x="284.4" y="207.9" transform="matrix(-3.044859e-12 1 -1 -3.044859e-12 587.1391 17.2141)" class="st17" width="1.2" height="188.6"/>
	
		<rect x="286.8" y="205.4" transform="matrix(-2.283690e-12 1 -1 -2.283690e-12 586.7715 11.8838)" class="st17" width="1.2" height="187.8"/>
	
		<rect x="289.2" y="204.4" transform="matrix(-3.044859e-12 1 -1 -3.044859e-12 586.4322 6.8706)" class="st17" width="1.2" height="184.6"/>
	
		<rect x="290" y="204.9" transform="matrix(-3.806028e-12 1 -1 -3.806028e-12 584.7056 3.5624)" class="st17" width="1.2" height="178.4"/>
	
		<rect x="293.1" y="202.2" transform="matrix(-1.814389e-11 1 -1 -1.814389e-11 585.604 -2.2402)" class="st17" width="1.6" height="179.1"/>
	
		<rect x="293.2" y="261.5" transform="matrix(7.609852e-13 1 -1 7.609852e-13 686.8035 99.2654)" class="st17" width="1.2" height="263"/>
	
		<rect x="295.2" y="264.3" transform="matrix(7.609852e-13 1 -1 7.609852e-13 691.5787 100.0198)" class="st17" width="1.2" height="263"/>
</g>
<g class="st16">
	
		<rect x="289.3" y="292.1" transform="matrix(7.612302e-13 -1 1 7.612302e-13 -133.6824 713.4691)" class="st17" width="1.2" height="263"/>
	
		<rect x="289.3" y="294.7" transform="matrix(7.612302e-13 -1 1 7.612302e-13 -136.2564 716.1242)" class="st17" width="1.2" height="263"/>
	
		<rect x="291.5" y="297.5" transform="matrix(7.612302e-13 -1 1 7.612302e-13 -136.9915 721.0869)" class="st17" width="1.2" height="263"/>
	
		<rect x="292.2" y="300.2" transform="matrix(7.612302e-13 -1 1 7.612302e-13 -138.9651 724.4658)" class="st17" width="1.2" height="263"/>
	
		<rect x="289.8" y="302.7" transform="matrix(7.612302e-13 -1 1 7.612302e-13 -143.7857 724.68)" class="st17" width="1.2" height="263"/>
	
		<rect x="290" y="310.6" transform="matrix(7.612302e-13 -1 1 7.612302e-13 -151.4553 732.6937)" class="st17" width="1.2" height="263"/>
	
		<rect x="290.7" y="313.3" transform="matrix(7.612302e-13 -1 1 7.612302e-13 -153.4289 736.0726)" class="st17" width="1.2" height="263"/>
	
		<rect x="288.4" y="315.8" transform="matrix(7.612302e-13 -1 1 7.612302e-13 -158.2496 736.2869)" class="st17" width="1.2" height="263"/>
	
		<rect x="285.6" y="318.2" transform="matrix(7.612302e-13 -1 1 7.612302e-13 -163.5409 735.8641)" class="st17" width="1.2" height="263"/>
	
		<rect x="286.8" y="320.9" transform="matrix(7.612302e-13 -1 1 7.612302e-13 -165.0341 739.8344)" class="st17" width="1.2" height="263"/>
	
		<rect x="287.7" y="323.7" transform="matrix(-2.283668e-12 -1 1 -2.283668e-12 -166.85 743.4819)" class="st17" width="1.2" height="263"/>
	
		<rect x="288.4" y="326.4" transform="matrix(7.612302e-13 -1 1 7.612302e-13 -168.8236 746.8608)" class="st17" width="1.2" height="263"/>
	
		<rect x="286.1" y="328.9" transform="matrix(7.612302e-13 -1 1 7.612302e-13 -173.6442 747.075)" class="st17" width="1.2" height="263"/>
	
		<rect x="285" y="331.3" transform="matrix(7.612302e-13 -1 1 7.612302e-13 -177.2209 748.4365)" class="st17" width="1.2" height="263"/>
	
		<rect x="285.1" y="334" transform="matrix(-2.283668e-12 -1 1 -2.283668e-12 -179.7949 751.0916)" class="st17" width="1.2" height="263"/>
	
		<rect x="287.2" y="336.8" transform="matrix(-2.283668e-12 -1 1 -2.283668e-12 -180.53 756.0543)" class="st17" width="1.2" height="263"/>
	
		<rect x="287.9" y="339.5" transform="matrix(-2.283668e-12 -1 1 -2.283668e-12 -182.5036 759.4332)" class="st17" width="1.2" height="263"/>
	
		<rect x="285.6" y="342" transform="matrix(7.612302e-13 -1 1 7.612302e-13 -187.3242 759.6474)" class="st17" width="1.2" height="263"/>
	
		<rect x="279.3" y="344" transform="matrix(7.612302e-13 -1 1 7.612302e-13 -195.5609 755.3742)" class="st17" width="1.2" height="263"/>
	
		<rect x="279.3" y="346.6" transform="matrix(-2.283668e-12 -1 1 -2.283668e-12 -198.1348 758.0292)" class="st17" width="1.2" height="263"/>
	
		<rect x="281.5" y="349.4" transform="matrix(-2.283668e-12 -1 1 -2.283668e-12 -198.8699 762.992)" class="st17" width="1.2" height="263"/>
	
		<rect x="282.2" y="352.1" transform="matrix(-2.283668e-12 -1 1 -2.283668e-12 -200.8435 766.3709)" class="st17" width="1.2" height="263"/>
	
		<rect x="280.8" y="355.6" transform="matrix(6.123234e-17 -1 1 6.123234e-17 -204.6804 767.5688)" class="st17" width="1.2" height="261"/>
	
		<rect x="278.6" y="362.4" transform="matrix(6.123234e-17 -1 1 6.123234e-17 -209.5592 767.9106)" class="st17" width="1.2" height="252.7"/>
	
		<rect x="279.5" y="365.9" transform="matrix(-7.611076e-13 -1 1 -7.611076e-13 -211.2362 771.4625)" class="st17" width="1.2" height="250.9"/>
	
		<rect x="281.2" y="368.3" transform="matrix(-7.611076e-13 -1 1 -7.611076e-13 -212.409 775.9876)" class="st17" width="1.2" height="251.8"/>
	
		<rect x="282.1" y="371.2" transform="matrix(-7.611076e-13 -1 1 -7.611076e-13 -214.1296 779.6195)" class="st17" width="1.2" height="251.3"/>
	
		<rect x="281.6" y="375.6" transform="matrix(-3.806005e-12 -1 1 -3.806005e-12 -217.1563 781.6276)" class="st17" width="1.2" height="247.7"/>
	
		<rect x="279.8" y="381.3" transform="matrix(-7.611076e-13 -1 1 -7.611076e-13 -221.3307 782.0924)" class="st17" width="1.2" height="240.8"/>
	
		<rect x="280.7" y="384.8" transform="matrix(-7.611076e-13 -1 1 -7.611076e-13 -223.0555 785.5966)" class="st17" width="1.2" height="239.1"/>
	
		<rect x="283.9" y="388.8" transform="matrix(-4.567174e-12 -1 1 -4.567174e-12 -222.6387 791.7112)" class="st17" width="1.2" height="236.8"/>
	
		<rect x="284.9" y="391.7" transform="matrix(-4.567174e-12 -1 1 -4.567174e-12 -224.3162 795.3863)" class="st17" width="1.2" height="236.2"/>
	
		<rect x="284.3" y="395.9" transform="matrix(-3.806005e-12 -1 1 -3.806005e-12 -227.5104 797.2269)" class="st17" width="1.2" height="233"/>
	
		<rect x="281.6" y="404.4" transform="matrix(-3.806005e-12 -1 1 -3.806005e-12 -232.5928 796.9993)" class="st17" width="1.2" height="220.7"/>
	
		<rect x="283.7" y="409.1" transform="matrix(-2.283668e-12 -1 1 -2.283668e-12 -233.1151 801.7061)" class="st17" width="1.2" height="216.6"/>
	
		<rect x="284.9" y="411.1" transform="matrix(-1.522277e-12 -1 1 -1.522277e-12 -234.7344 805.7845)" class="st17" width="1.2" height="218.4"/>
	
		<rect x="286" y="414.1" transform="matrix(-1.522277e-12 -1 1 -1.522277e-12 -236.3687 809.5028)" class="st17" width="1.2" height="217.7"/>
	
		<rect x="286.2" y="419.1" transform="matrix(-1.522277e-12 -1 1 -1.522277e-12 -238.6564 812.2499)" class="st17" width="1.2" height="212.7"/>
	
		<rect x="279.2" y="432.3" transform="matrix(-4.567174e-12 -1 1 -4.567174e-12 -248.2187 807.7907)" class="st17" width="1.2" height="191.4"/>
	
		<rect x="280.6" y="436.3" transform="matrix(-3.044837e-12 -1 1 -3.044837e-12 -249.3885 811.8499)" class="st17" width="1.2" height="188.6"/>
	
		<rect x="283.1" y="439.5" transform="matrix(-2.283668e-12 -1 1 -2.283668e-12 -249.756 817.1802)" class="st17" width="1.2" height="187.8"/>
	
		<rect x="285.5" y="443.9" transform="matrix(-3.044837e-12 -1 1 -3.044837e-12 -250.0953 822.1934)" class="st17" width="1.2" height="184.6"/>
	
		<rect x="286.2" y="449.5" transform="matrix(-3.806005e-12 -1 1 -3.806005e-12 -251.8219 825.5016)" class="st17" width="1.2" height="178.4"/>
	
		<rect x="289.4" y="451.6" transform="matrix(-1.814365e-11 -1 1 -1.814365e-11 -250.9235 831.3043)" class="st17" width="1.6" height="179.1"/>
	
		<rect x="289.4" y="308.3" transform="matrix(7.612302e-13 -1 1 7.612302e-13 -149.7241 729.7986)" class="st17" width="1.2" height="263"/>
	
		<rect x="291.5" y="305.5" transform="matrix(7.612302e-13 -1 1 7.612302e-13 -144.9489 729.0443)" class="st17" width="1.2" height="263"/>
	
		<rect x="300.1" y="458.3" transform="matrix(-1.697303e-11 -1 1 -1.697303e-11 -242.7182 844.4738)" class="st17" width="1.6" height="170.5"/>
	
		<rect x="297.7" y="460.5" transform="matrix(-1.755834e-11 -1 1 -1.755834e-11 -247.5408 844.4304)" class="st17" width="1.6" height="170.9"/>
	
		<rect x="299.5" y="322.6" transform="matrix(-1.814365e-11 -1 1 -1.814365e-11 -111.8215 712.3312)" class="st17" width="1.6" height="179.1"/>
	
		<rect x="303.3" y="325.1" transform="matrix(-1.814365e-11 -1 1 -1.814365e-11 -110.4516 718.7036)" class="st17" width="1.6" height="179.1"/>
	
		<rect x="306.7" y="328" transform="matrix(-1.814365e-11 -1 1 -1.814365e-11 -110.0908 724.972)" class="st17" width="1.6" height="179.1"/>
	
		<rect x="307.2" y="331" transform="matrix(-1.814365e-11 -1 1 -1.814365e-11 -112.5342 728.5282)" class="st17" width="1.6" height="179.1"/>
</g>
<rect x="311.3" y="429.4" class="st18" width="45.9" height="45.2"/>
<rect x="311.3" y="356.6" class="st18" width="45.9" height="46.7"/>
<rect x="250.6" y="361.5" class="st18" width="34.6" height="41.9"/>
<rect x="249.4" y="429.4" class="st18" width="34.6" height="41.9"/>
<rect x="292.5" y="289.5" class="st18" width="9.6" height="259.7"/>
<rect x="157.4" y="410.7" class="st18" width="135.1" height="11.3"/>
<rect x="341.8" y="410.7" class="st18" width="81.2" height="11.3"/>
<linearGradient id="SVGID_00000173157558152655430610000017933931300295825847_" gradientUnits="userSpaceOnUse" x1="134.1827" y1="418.1284" x2="452.1569" y2="418.1284">
	<stop  offset="0.2775" style="stop-color:#494099"/>
	<stop  offset="0.8836" style="stop-color:#262367"/>
	<stop  offset="1" style="stop-color:#1F1854"/>
</linearGradient>
<ellipse style="fill:none;stroke:url(#SVGID_00000173157558152655430610000017933931300295825847_);stroke-width:22;stroke-miterlimit:10;" cx="293.2" cy="418.1" rx="148" ry="146.8"/>
<circle class="st20" cx="292.5" cy="418.8" r="135.1"/>
</svg>
